<svg width="320" height="66" viewBox="0 0 320 66" fill="none" xmlns="http://www.w3.org/2000/svg">
<g clip-path="url(#clip0_141_2931)">
<mask id="mask0_141_2931" style="mask-type:luminance" maskUnits="userSpaceOnUse" x="4" y="2" width="76" height="60">
<path d="M40.1401 35.8579C43.5954 28.5063 47.4918 20.3183 52.0223 13.5548C53.0515 13.8029 54.044 14.0235 55.0365 14.2073C50.5428 20.4746 46.775 28.5063 42.8603 36.1704C39.4142 42.9247 35.9037 50.8186 29.7927 54.2923C33.4961 49.5412 36.7584 43.0074 40.1401 35.8579ZM61.3865 12.5623C67.3873 5.30255 74.4541 4.42035 76.4758 6.12961C78.0932 7.48967 76.4758 11.0185 70.0431 12.0569C67.8693 12.429 65.6687 12.6226 63.4633 12.6358C62.7557 12.6358 62.0573 12.6358 61.3405 12.5715M56.7274 11.965C55.7533 11.772 54.7148 11.5515 53.6213 11.3034C55.9095 8.07783 58.7021 5.24178 61.8919 2.90407C58.2161 3.44625 54.6965 6.41449 51.3698 10.7428C47.547 9.73194 42.9981 8.32593 37.0984 6.48801C29.0851 4.0252 25.1519 2.66514 16.1002 2.66514C12.1303 2.66514 3.23473 6.19394 4.61317 10.7336H4.59479C5.89972 14.8597 10.8529 13.5456 10.1086 11.9742C8.46361 11.0552 7.20464 7.27831 14.492 5.30255C18.5905 4.17223 26.4385 5.35769 35.8854 8.44539C40.9856 10.1179 45.5161 11.772 49.7708 12.9667C45.6447 18.9767 41.8126 26.9257 38.1736 34.6541C34.4977 42.5755 31.0608 50.3316 26.6222 55.5788C25.3685 55.9047 24.0763 56.0593 22.781 56.0383C16.9364 55.9648 10.5405 48.7234 16.5413 43.3658C13.9498 42.4469 8.32577 44.8637 9.18959 50.1202C10.2648 56.6816 18.8479 58.4827 23.9665 58.3173C21.9462 60.1414 19.4689 61.3833 16.7986 61.9104C20.3825 62.0575 23.507 60.6239 26.3833 58.0692C35.3064 56.4702 41.1786 47.3266 47.1059 36.9331C51.1952 29.6458 55.4224 20.787 59.7324 14.7219C72.8275 15.5489 80.3262 11.2482 79.8208 6.82802C79.5635 4.62252 77.9094 2.64676 73.2227 2.64676C66.4775 2.64676 61.2762 6.3226 56.7457 11.9466" fill="white"/>
</mask>
<g mask="url(#mask0_141_2931)">
<mask id="mask1_141_2931" style="mask-type:luminance" maskUnits="userSpaceOnUse" x="1" y="2" width="83" height="64">
<path d="M83.7172 2.43539H1.08437V65.4944H83.7172V2.43539Z" fill="white"/>
</mask>
<g mask="url(#mask1_141_2931)">
<path d="M83.7172 2.43539H1.08437V65.4944H83.7172V2.43539Z" fill="white"/>
</g>
</g>
<path d="M7.416 24.858V17.6626H15.0526V24.858H22.4594V32.2648H15.0526V39.4787H7.416V32.2648H0V24.858H7.416Z" fill="white"/>
<path d="M104.256 54.035H100.268V64.8603H99.0179V54.035H95.0572V52.9874H104.256V54.035Z" fill="white"/>
<path d="M116.974 64.8603H115.771V59.0801H108.235V64.8603H107.004V52.9874H108.235V58.0968H115.771V52.9874H116.974V64.8603Z" fill="white"/>
<path d="M131.411 64.8603H130.033L128.333 61.0834H122.222L120.595 64.8603H119.263L124.556 52.9874H125.833L131.411 64.8603ZM127.928 60.1553L125.171 54.182L122.617 60.1553H127.928Z" fill="white"/>
<path d="M135.243 52.9874H134.021V64.8511H135.243V52.9874Z" fill="white"/>
<path d="M149.331 64.8603H148.026L140.509 54.7426L140.628 64.8603H139.369V52.9874H140.628L148.191 63.2154L148.109 52.9874H149.331V64.8603Z" fill="white"/>
<path d="M163.749 64.8603H162.353L160.662 61.0834H154.606L152.952 64.8603H151.628L156.921 52.9874H158.208L163.749 64.8603ZM160.257 60.1553L157.5 54.182L154.964 60.1553H160.257Z" fill="white"/>
<path d="M176.532 64.8603H174.896L169.631 58.5287L167.269 60.4585V64.8603H166.056V52.9874H167.269V59.1903L174.621 52.9874H176.284L170.43 57.8487L176.532 64.8603Z" fill="white"/>
<path d="M189.379 64.8603H187.982L186.291 61.0834H180.226L178.59 64.8603H177.258L182.542 52.9874H183.792L189.379 64.8603ZM185.878 60.1553L183.121 54.182L180.575 60.1553H185.878Z" fill="white"/>
<path d="M202.171 64.8603H200.581L198.835 62.3516C198.38 61.6368 197.864 60.9634 197.291 60.339C196.969 60.0391 196.591 59.805 196.179 59.6498C195.739 59.4736 195.266 59.3892 194.792 59.4017H192.954V64.8603H191.722V52.9874H197.181C197.911 52.9658 198.637 53.0972 199.313 53.3733C199.87 53.5815 200.348 53.9598 200.678 54.4547C201.008 54.9496 201.173 55.5358 201.151 56.1302C201.151 58.0233 199.892 59.0801 197.374 59.3006C198.338 59.7604 199.162 60.4676 199.763 61.3499L202.171 64.8603ZM192.908 53.9798V58.4368H196.345C198.636 58.4368 199.782 57.6741 199.782 56.1486C199.784 55.8507 199.721 55.5559 199.598 55.2848C199.462 55.0049 199.26 54.7622 199.01 54.5772C198.706 54.3501 198.354 54.196 197.981 54.1269C197.455 54.0177 196.918 53.9684 196.382 53.9798H192.908Z" fill="white"/>
<path d="M206.049 52.9874H204.827V64.8511H206.049V52.9874Z" fill="white"/>
<path d="M220.137 64.8603H218.823L211.296 54.7426L211.425 64.8603H210.175V52.9874H211.425L218.997 63.2154L218.914 52.9874H220.137V64.8603Z" fill="white"/>
<path d="M239.674 64.8603H238.488V59.0801H230.944V64.8603H229.721V52.9874H230.944V58.0968H238.488V52.9874H239.674V64.8603Z" fill="white"/>
<path d="M255.131 58.9422C255.167 59.7508 255.043 60.5586 254.766 61.3189C254.488 62.0792 254.062 62.7769 253.513 63.3716C252.935 63.9482 252.241 64.3967 251.478 64.688C250.715 64.9793 249.899 65.1069 249.084 65.0625C247.968 65.0968 246.863 64.8403 245.877 64.3181C245.002 63.8125 244.281 63.0788 243.791 62.1953C243.26 61.1948 242.998 60.0742 243.028 58.9422C242.99 58.1265 243.113 57.3113 243.39 56.5433C243.668 55.7753 244.094 55.0697 244.645 54.4669C245.228 53.8952 245.924 53.4513 246.689 53.1633C247.453 52.8754 248.268 52.7497 249.084 52.7944C250.206 52.7635 251.317 53.0231 252.309 53.5479C253.184 54.0535 253.905 54.7873 254.395 55.6707C254.908 56.6836 255.16 57.8077 255.131 58.9422ZM253.844 58.9422C253.912 57.5641 253.456 56.2113 252.567 55.1561C251.633 54.2368 250.376 53.7216 249.065 53.7216C247.755 53.7216 246.498 54.2368 245.564 55.1561C244.739 56.2337 244.292 57.553 244.292 58.9101C244.292 60.2671 244.739 61.5864 245.564 62.664C246.006 63.1444 246.547 63.5219 247.151 63.7696C247.754 64.0174 248.405 64.1293 249.056 64.0976C249.932 64.1188 250.796 63.8995 251.556 63.4635C252.27 63.0191 252.843 62.382 253.21 61.6256C253.633 60.7696 253.842 59.8233 253.817 58.8687" fill="white"/>
<path d="M257.658 61.2948L258.871 61.1937C258.879 61.6205 258.978 62.0406 259.162 62.4258C259.346 62.811 259.61 63.1523 259.937 63.4267C260.649 63.94 261.513 64.1989 262.39 64.1619C263.035 64.1782 263.677 64.0753 264.283 63.8587C264.765 63.6841 265.18 63.3627 265.469 62.9397C265.73 62.5679 265.871 62.1255 265.873 61.6715C265.873 60.4677 264.743 59.6866 262.464 59.319C261.278 59.1922 260.141 58.7825 259.147 58.1244C258.833 57.8593 258.586 57.5238 258.426 57.1454C258.267 56.7669 258.199 56.3561 258.228 55.9464C258.21 55.4955 258.307 55.0475 258.51 54.6442C258.712 54.2409 259.014 53.8954 259.385 53.6398C260.257 53.0437 261.299 52.747 262.354 52.7944C263.464 52.7303 264.567 53.0163 265.506 53.6123C265.889 53.9109 266.198 54.2948 266.406 54.7335C266.615 55.1722 266.719 55.6536 266.71 56.1394H265.515C265.368 54.5037 264.348 53.695 262.455 53.695C261.689 53.6637 260.932 53.8587 260.277 54.2555C260.012 54.4211 259.794 54.6514 259.643 54.9247C259.491 55.1981 259.412 55.5054 259.413 55.8178C259.413 56.9481 260.451 57.7108 262.51 58.0876C263.728 58.2628 264.902 58.6716 265.965 59.2914C266.328 59.5482 266.618 59.8951 266.807 60.2979C266.995 60.7006 267.076 61.1455 267.04 61.5888C267.047 62.0773 266.943 62.5611 266.737 63.004C266.525 63.4411 266.21 63.8196 265.818 64.1068C265.37 64.4287 264.869 64.6712 264.339 64.8236C263.742 64.9976 263.122 65.0813 262.501 65.0717C259.551 65.0717 257.906 63.8219 257.695 61.3131" fill="white"/>
<path d="M271.479 59.8428V64.8603H270.229V52.9874H274.769C275.876 52.9295 276.969 53.2539 277.866 53.9063C278.234 54.2081 278.526 54.5926 278.718 55.0286C278.909 55.4646 278.995 55.9396 278.968 56.4151C278.968 56.8724 278.87 57.3245 278.682 57.7411C278.493 58.1578 278.218 58.5297 277.875 58.832C277.498 59.1779 277.045 59.4299 276.552 59.5671C275.956 59.7461 275.336 59.8298 274.714 59.8152L271.479 59.8428ZM271.479 54.035V58.832H274.392C276.579 58.832 277.664 58.0141 277.664 56.4059C277.664 54.7977 276.579 54.0074 274.392 54.0074L271.479 54.035Z" fill="white"/>
<path d="M283.545 52.9874H282.323V64.8511H283.545V52.9874Z" fill="white"/>
<path d="M295.749 54.035H291.742V64.8603H290.501V54.035H286.532V52.9874H295.749V54.035Z" fill="white"/>
<path d="M309.055 64.8603H307.668L306.013 61.0834H299.939L298.294 64.8603H296.971L302.264 52.9874H303.541L309.055 64.8603ZM305.572 60.1553L302.815 54.182L300.279 60.1553H305.572Z" fill="white"/>
<path d="M319.09 64.8603H311.334V52.9874H312.556V63.8954H319.09V64.8603Z" fill="white"/>
<path d="M94.9928 15.0435L95.2501 8.33514L91.3813 15.4295H88.9553L86.4925 7.00265C86.3362 7.00265 86.2352 6.77291 86.1341 6.32262C86.1109 6.20919 86.0647 6.10172 85.9983 6.00687C85.9319 5.91203 85.8468 5.83183 85.7481 5.77125C85.6384 5.71398 85.5207 5.6737 85.3989 5.65178V0.937522H87.3563C87.5384 0.932582 87.7188 0.974834 87.8798 1.06017C88.0408 1.14551 88.1771 1.27104 88.2752 1.42457C88.4471 1.52317 88.5825 1.67467 88.6612 1.85648C88.713 1.97273 88.7441 2.09712 88.7531 2.22407L90.9035 8.65678L95.3237 0.937522H98.9444V36.685H99.3855C99.6395 36.6691 99.8942 36.6691 100.148 36.685C100.819 36.6714 101.485 36.7948 102.106 37.0476C102.727 37.3004 103.289 37.6774 103.76 38.1554C104.246 38.6427 104.627 39.2242 104.88 39.8643C105.133 40.5043 105.252 41.1893 105.23 41.8772C105.229 42.5392 105.097 43.1944 104.841 43.8051C104.586 44.4158 104.212 44.9699 103.741 45.4355C103.27 45.901 102.712 46.2688 102.099 46.5177C101.485 46.7666 100.829 46.8916 100.167 46.8855C99.486 46.9041 98.8088 46.7833 98.1766 46.5305C97.5444 46.2776 96.9707 45.898 96.4907 45.4152C96.0108 44.9483 95.6325 44.3874 95.3795 43.7675C95.1264 43.1476 95.0042 42.4822 95.0204 41.8128L94.9928 15.0435ZM100.167 43.3567C100.398 43.3654 100.629 43.3239 100.843 43.2351C101.057 43.1463 101.25 43.0122 101.407 42.8421C101.694 42.5067 101.851 42.0794 101.848 41.6382C101.866 41.1889 101.708 40.7505 101.407 40.416C101.248 40.2487 101.055 40.1178 100.841 40.0321C100.627 39.9464 100.397 39.9081 100.167 39.9198C99.9322 39.907 99.698 39.9475 99.4815 40.0382C99.2651 40.1289 99.072 40.2675 98.9168 40.4436C98.6387 40.7791 98.4889 41.2025 98.4941 41.6382C98.4995 42.083 98.666 42.5107 98.9627 42.8421C99.1154 43.0084 99.3016 43.1403 99.5092 43.229C99.7168 43.3178 99.9409 43.3613 100.167 43.3567Z" fill="white"/>
<path d="M117.498 39.01V46.6465H113.464V32.4762H113.142C112.968 32.4762 112.729 32.4762 112.416 32.4762C111.736 32.484 111.06 32.3564 110.429 32.1009C109.798 31.8453 109.224 31.4668 108.74 30.9875C108.233 30.5044 107.833 29.9203 107.565 29.2729C107.298 28.6255 107.169 27.9292 107.187 27.2289C107.162 26.54 107.288 25.854 107.557 25.2189C107.825 24.5839 108.229 24.0153 108.74 23.5531C109.732 22.6144 111.051 22.1 112.416 22.1195C113.089 22.0965 113.759 22.2119 114.386 22.4586C115.012 22.7052 115.581 23.0779 116.058 23.5535C116.534 24.0291 116.908 24.5974 117.156 25.2233C117.403 25.8492 117.52 26.5193 117.498 27.1922V32.3843L118.546 30.5739L124.17 22.4503H125.374C126.667 22.3421 127.959 22.6652 129.049 23.3693C129.803 24.0953 130.18 25.4278 130.18 27.3484V46.6465H126.1V26.8522H125.769L117.498 39.01ZM112.416 25.8137C112.196 25.8035 111.977 25.8419 111.774 25.9261C111.571 26.0102 111.388 26.1382 111.24 26.3008C110.956 26.6194 110.799 27.0316 110.799 27.4587C110.797 27.8999 110.953 28.3272 111.24 28.6625C111.383 28.8338 111.563 28.9695 111.767 29.0589C111.972 29.1482 112.194 29.1887 112.416 29.1771C112.645 29.1924 112.874 29.1566 113.087 29.0723C113.3 28.9881 113.491 28.8575 113.648 28.6901C113.934 28.3449 114.084 27.907 114.07 27.4587C114.078 27.0337 113.927 26.6212 113.648 26.3008C113.49 26.1354 113.298 26.0062 113.085 25.9221C112.873 25.838 112.645 25.801 112.416 25.8137Z" fill="white"/>
<path d="M144.176 34.2498C144.904 34.3726 145.642 34.4341 146.381 34.4336C146.739 34.4336 147.043 34.4336 147.3 34.4336C147.557 34.4336 147.714 34.4336 147.796 34.4336V37.9716H145.536C144.526 37.9367 143.519 38.0926 142.567 38.4311C142.213 38.6276 141.925 38.9243 141.739 39.2839C141.552 39.6435 141.476 40.0501 141.52 40.4528C141.475 40.773 141.504 41.0992 141.604 41.4066C141.704 41.714 141.873 41.9944 142.099 42.2264C142.743 42.5817 143.479 42.7353 144.212 42.6675H150.231C150.755 42.7064 151.278 42.5742 151.72 42.2907C152.037 41.828 152.177 41.2673 152.115 40.7101V22.4504H156.205V41.7485C156.205 43.7059 155.8 45.0568 154.992 45.7919C154.321 46.3617 153.154 46.6374 151.371 46.6374H142.328C141.065 46.7525 139.798 46.4559 138.717 45.7919C137.908 45.0568 137.495 43.7059 137.495 41.7485V40.4528C137.399 39.256 137.76 38.0675 138.506 37.1261C138.965 36.5756 139.535 36.1279 140.178 35.812C139.376 35.3171 138.674 34.6748 138.11 33.919C137.256 32.8989 136.796 31.2264 136.769 28.9015C136.697 27.9977 136.81 27.0888 137.103 26.2307C137.395 25.3725 137.86 24.5833 138.469 23.9115C138.998 23.3592 139.635 22.9204 140.34 22.6218C141.044 22.3233 141.802 22.1711 142.567 22.1747C143.954 22.1432 145.297 22.6581 146.308 23.6083C146.818 24.071 147.22 24.6399 147.487 25.2749C147.754 25.91 147.878 26.5958 147.851 27.2841C147.869 27.9678 147.743 28.6476 147.484 29.2804C147.225 29.9132 146.836 30.4851 146.344 30.9599C145.848 31.4492 145.257 31.832 144.608 32.0848C143.958 32.3377 143.264 32.4552 142.567 32.4303C142.384 32.4416 142.2 32.4416 142.016 32.4303C141.927 32.4203 141.838 32.4203 141.749 32.4303C141.876 32.7735 142.074 33.0866 142.328 33.3492C142.841 33.824 143.479 34.1428 144.166 34.2682M142.558 25.8321C142.332 25.8157 142.106 25.851 141.895 25.9354C141.685 26.0198 141.497 26.1511 141.345 26.3192C141.075 26.6436 140.931 27.0549 140.941 27.4771C140.922 27.9276 141.077 28.3683 141.373 28.7085C141.522 28.8728 141.705 29.0018 141.91 29.0861C142.115 29.1704 142.337 29.2077 142.558 29.1955C142.788 29.2102 143.018 29.1742 143.233 29.09C143.447 29.0059 143.64 28.8756 143.799 28.7085C144.085 28.3633 144.236 27.9254 144.221 27.4771C144.229 27.0521 144.078 26.6396 143.799 26.3192C143.639 26.1535 143.446 26.0243 143.232 25.9402C143.018 25.8562 142.788 25.8193 142.558 25.8321Z" fill="white"/>
<path d="M171.046 38.3392L170.917 41.096C171.083 40.9031 171.487 40.4711 172.112 39.8003C172.934 38.9449 173.806 38.1379 174.722 37.3834C175.45 36.7734 176.224 36.2204 177.037 35.7293C177.472 35.4546 177.938 35.2325 178.425 35.0677V22.4504H182.367V34.553C183.122 34.6508 183.864 34.8263 184.582 35.0769C185.721 35.4767 186.739 36.1598 187.541 37.0618C188.589 38.247 189.139 39.791 189.076 41.3717C189.116 42.144 188.977 42.9151 188.669 43.6246C188.361 44.3341 187.894 44.9627 187.302 45.4611C186.234 46.3988 184.864 46.9207 183.443 46.9314C182.144 46.9749 180.872 46.551 179.859 45.7368C179.367 45.314 178.982 44.7822 178.733 44.1838C178.484 43.5854 178.379 42.9371 178.425 42.2907V39.6165C178.113 39.6165 177.093 40.3976 175.393 41.9507C174.361 42.9302 173.38 43.9607 172.452 45.0384C171.508 46.1105 169.698 46.6465 167.021 46.6465V32.4762H166.69C166.515 32.4762 166.267 32.4762 165.955 32.4762C165.274 32.485 164.598 32.3579 163.967 32.1023C163.336 31.8467 162.762 31.4677 162.279 30.9875C161.773 30.5031 161.374 29.9187 161.107 29.2716C160.84 28.6245 160.71 27.9289 160.726 27.2289C160.703 26.5404 160.831 25.8551 161.099 25.2204C161.367 24.5858 161.77 24.0169 162.279 23.5531C163.27 22.6127 164.589 22.0981 165.955 22.1195C166.628 22.0952 167.3 22.2097 167.927 22.4558C168.555 22.7019 169.125 23.0743 169.602 23.55C170.08 24.0258 170.454 24.5945 170.702 25.2211C170.951 25.8476 171.068 26.5186 171.046 27.1922V38.3392ZM165.955 25.8137C165.735 25.8054 165.516 25.8446 165.313 25.9287C165.11 26.0128 164.928 26.1397 164.779 26.3008C164.499 26.6212 164.349 27.0337 164.356 27.4587C164.348 27.8976 164.498 28.3246 164.779 28.6625C164.922 28.8322 165.103 28.9668 165.307 29.0559C165.511 29.1451 165.733 29.1866 165.955 29.1771C166.185 29.1938 166.416 29.1587 166.63 29.0744C166.845 28.9901 167.038 28.8588 167.195 28.6901C167.488 28.3476 167.645 27.9094 167.637 27.4587C167.637 27.0316 167.48 26.6194 167.195 26.3008C167.037 26.1337 166.844 26.0034 166.629 25.9192C166.415 25.8351 166.185 25.7991 165.955 25.8137ZM182.23 38.6148V41.3717C182.23 42.6399 182.689 43.2648 183.571 43.2648C183.998 43.2595 184.407 43.0958 184.72 42.8053C184.908 42.6194 185.054 42.3951 185.148 42.1477C185.241 41.9003 185.28 41.6356 185.262 41.3717C185.319 40.9345 185.24 40.4902 185.034 40.1002C184.828 39.7101 184.507 39.3934 184.113 39.1938C183.541 38.9023 182.916 38.7273 182.276 38.6792" fill="white"/>
<path d="M196.988 37.6132L197.907 33.6433C198.15 32.3351 198.792 31.1344 199.745 30.2063C200.577 29.4446 201.668 29.0302 202.796 29.0485C203.987 29.0598 205.13 29.5229 205.994 30.3442C206.478 30.7834 206.859 31.3242 207.11 31.9278C207.361 32.5315 207.476 33.1832 207.446 33.8362C207.497 34.4998 207.393 35.1662 207.141 35.7822C206.889 36.3981 206.496 36.9465 205.994 37.3834C205.101 38.1273 203.977 38.5367 202.814 38.5413C202.379 38.5545 201.945 38.4827 201.537 38.3299C201.261 38.2285 200.991 38.112 200.728 37.9807C200.636 38.2381 200.508 38.6883 200.333 39.3316C200.158 39.9749 199.975 40.7652 199.791 41.6566C199.423 43.3032 199.201 44.9792 199.129 46.6649H195.095V45.7459C195.106 44.7837 194.998 43.8237 194.773 42.888C194.544 42.0609 194.176 40.8938 193.661 39.4051C193.197 38.0833 192.808 36.7364 192.494 35.3709C192.22 34.1153 192.084 32.8333 192.09 31.548C192.193 29.7754 192.781 28.0653 193.79 26.604C194.787 25.1944 196.124 24.0596 197.677 23.305C199.258 22.5386 200.993 22.1426 202.75 22.1471C204.703 22.1152 206.631 22.5901 208.346 23.5255C209.92 24.3793 211.227 25.6514 212.123 27.2013C213.027 28.8073 213.487 30.6246 213.456 32.467V46.6465H209.385V32.5313C209.428 30.7609 208.767 29.0458 207.547 27.7619C206.933 27.1163 206.188 26.6088 205.363 26.2729C204.537 25.937 203.65 25.7805 202.759 25.8137C201.472 25.7721 200.199 26.0903 199.083 26.7327C198.046 27.3211 197.203 28.1994 196.657 29.2598C196.088 30.3449 195.798 31.5543 195.812 32.7794C195.782 33.8263 195.931 34.8706 196.253 35.8671C196.434 36.4699 196.671 37.0544 196.961 37.6132M202.787 32.0443C202.556 32.0313 202.325 32.0681 202.109 32.1521C201.893 32.2361 201.698 32.3655 201.537 32.5313C201.257 32.8718 201.104 33.2989 201.104 33.7397C201.104 34.1806 201.257 34.6077 201.537 34.9482C201.693 35.1231 201.886 35.2604 202.102 35.3495C202.319 35.4387 202.553 35.4774 202.787 35.4628C203.016 35.475 203.246 35.4378 203.46 35.3538C203.674 35.2698 203.867 35.1409 204.027 34.9757C204.328 34.6445 204.489 34.21 204.478 33.7627C204.489 33.31 204.328 32.8697 204.027 32.5313C203.867 32.3662 203.674 32.2372 203.46 32.1532C203.246 32.0692 203.016 32.032 202.787 32.0443Z" fill="white"/>
<path d="M229.887 28.929C231.624 28.929 232.837 29.2139 233.508 29.7928C234.178 30.3718 234.711 31.8145 234.711 33.8179V41.822C234.724 42.4917 234.6 43.1569 234.345 43.7765C234.091 44.3961 233.712 44.9569 233.232 45.4243C232.752 45.9076 232.179 46.2875 231.546 46.5404C230.914 46.7933 230.237 46.9139 229.556 46.8947C228.185 46.9092 226.863 46.3807 225.88 45.4243C225.386 44.9658 224.994 44.4077 224.731 43.7868C224.468 43.1658 224.34 42.4962 224.355 41.822C224.332 41.1292 224.457 40.4394 224.719 39.798C224.982 39.1565 225.378 38.578 225.88 38.1002C226.863 37.1439 228.185 36.6153 229.556 36.6299C229.798 36.6136 230.04 36.6136 230.282 36.6299H230.613V34.4887C230.613 33.6433 230.503 33.1195 230.282 32.954C229.839 32.631 229.293 32.4807 228.747 32.5313H218.014V29.3609C218.277 28.5661 218.618 27.7995 219.034 27.0727C219.726 25.8511 220.665 24.787 221.791 23.9482C223.224 22.8731 224.982 22.3217 226.772 22.386C227.973 22.3903 229.166 22.5793 230.31 22.9466C231.181 23.207 232.084 23.3492 232.993 23.3693C233.514 23.383 234.035 23.318 234.537 23.1763C234.814 23.1114 235.083 23.0126 235.336 22.8822L236.678 26.4202C236.403 26.6296 236.091 26.7855 235.759 26.8797C235.077 27.0867 234.366 27.1798 233.655 27.1554C232.411 27.146 231.174 26.9667 229.979 26.6224C229.086 26.3405 228.158 26.1889 227.222 26.1721C226.002 26.0592 224.787 26.4324 223.84 27.2105C223.301 27.6916 222.863 28.2759 222.554 28.929H229.887ZM229.556 43.3567C229.787 43.3672 230.017 43.3264 230.229 43.2375C230.442 43.1485 230.633 43.0134 230.787 42.842C231.064 42.5021 231.214 42.0764 231.21 41.6382C231.222 41.193 231.072 40.7587 230.787 40.416C230.457 40.0894 230.011 39.9062 229.547 39.9062C229.082 39.9062 228.637 40.0894 228.306 40.416C228.018 40.7476 227.858 41.1714 227.856 41.6106C227.859 42.0592 228.034 42.4897 228.343 42.8145C228.497 42.981 228.685 43.113 228.894 43.2017C229.103 43.2904 229.329 43.3338 229.556 43.3291" fill="white"/>
<path d="M226.395 18.3977C224.573 18.3759 222.751 18.4465 220.936 18.6091C219.576 18.7469 218.63 18.8664 218.087 18.9491V16.1555C218.637 14.5199 219.498 13.0064 220.624 11.6985C222.008 9.9035 224.223 9.00904 227.268 9.01517C230.53 9.01517 232.837 9.93413 234.16 11.7169C235.266 13.012 236.089 14.5238 236.577 16.1555V19.4637C235.759 19.2891 234.436 19.0778 232.579 18.8205C230.53 18.5424 228.463 18.4104 226.395 18.4253M227.268 12.4888C225.94 12.3909 224.621 12.7688 223.546 13.5548C222.921 14.0463 222.384 14.6397 221.956 15.31C222.195 15.2641 222.673 15.1906 223.408 15.0895C224.488 14.9604 225.574 14.9051 226.661 14.9241C227.973 14.9118 229.284 15.0194 230.576 15.2457C231.725 15.4479 232.524 15.6041 233.021 15.7236C232.607 14.9447 232.027 14.2669 231.32 13.7386C230.161 12.8531 228.724 12.4099 227.268 12.4888Z" fill="white"/>
<path d="M251.519 38.3391L251.39 41.096L252.594 39.8003C253.411 38.9424 254.28 38.1352 255.195 37.3834C255.923 36.7734 256.697 36.2204 257.511 35.7293C257.947 35.4581 258.413 35.2362 258.898 35.0677V22.4503H262.822V34.553C263.58 34.6484 264.326 34.824 265.046 35.0768C266.185 35.4767 267.203 36.1598 268.005 37.0618C269.059 38.2447 269.615 39.7886 269.558 41.3717C269.599 42.1449 269.459 42.917 269.149 43.6267C268.84 44.3365 268.37 44.9645 267.776 45.4611C266.708 46.4002 265.338 46.9224 263.916 46.9314C262.619 46.9768 261.35 46.5526 260.341 45.7368C259.846 45.3163 259.458 44.7852 259.207 44.1864C258.957 43.5876 258.851 42.9381 258.898 42.2907V39.6165C258.586 39.6165 257.566 40.3976 255.875 41.9507C254.846 42.9248 253.872 43.9448 252.925 45.0384C251.979 46.1319 250.168 46.6465 247.494 46.6465V32.4762H247.172C246.998 32.4762 246.75 32.4762 246.437 32.4762C245.756 32.4861 245.08 32.3594 244.449 32.1037C243.817 31.8481 243.244 31.4685 242.761 30.9875C242.256 30.5036 241.857 29.9192 241.591 29.2718C241.325 28.6244 241.198 27.9285 241.218 27.2289C241.191 26.5406 241.315 25.8548 241.582 25.2198C241.849 24.5847 242.251 24.0158 242.761 23.5531C243.751 22.611 245.071 22.0961 246.437 22.1195C247.11 22.0952 247.781 22.2096 248.408 22.4558C249.035 22.702 249.605 23.0746 250.082 23.5505C250.558 24.0263 250.932 24.5952 251.179 25.2217C251.427 25.8483 251.542 26.519 251.519 27.1922V38.3391ZM246.437 25.8137C246.219 25.8023 246 25.8402 245.798 25.9245C245.596 26.0088 245.416 26.1374 245.27 26.3008C244.978 26.6145 244.82 27.03 244.829 27.4587C244.819 27.9012 244.977 28.3312 245.27 28.6625C245.41 28.8342 245.589 28.9703 245.792 29.0598C245.995 29.1492 246.216 29.1894 246.437 29.1771C246.666 29.1911 246.894 29.1547 247.107 29.0705C247.32 28.9864 247.512 28.8565 247.669 28.6901C247.965 28.3499 248.119 27.9093 248.101 27.4587C248.109 27.0319 247.954 26.6179 247.669 26.3008C247.51 26.1359 247.319 26.007 247.106 25.9229C246.894 25.8389 246.665 25.8016 246.437 25.8137ZM262.712 38.6792V41.3717C262.712 42.6399 263.162 43.2648 264.054 43.2648C264.48 43.2595 264.89 43.0958 265.202 42.8053C265.392 42.6209 265.538 42.3965 265.63 42.1486C265.723 41.9006 265.759 41.6352 265.735 41.3717C265.792 40.9356 265.713 40.4926 265.509 40.1029C265.305 39.7133 264.987 39.3958 264.596 39.1938C264.009 38.8963 263.368 38.7213 262.712 38.6792Z" fill="white"/>
<path d="M281.202 39.01V46.6466H277.186V32.4762H276.855C276.68 32.4762 276.441 32.4762 276.12 32.4762C275.439 32.4861 274.762 32.3595 274.131 32.1038C273.5 31.8481 272.926 31.4685 272.444 30.9875C271.938 30.5031 271.539 29.9187 271.272 29.2716C271.004 28.6246 270.875 27.9289 270.891 27.2289C270.868 26.5404 270.995 25.8551 271.264 25.2204C271.532 24.5858 271.934 24.0169 272.444 23.5531C273.433 22.611 274.754 22.0961 276.12 22.1195C276.798 22.0939 277.474 22.2079 278.106 22.4545C278.739 22.7011 279.314 23.0751 279.796 23.5531C280.276 24.0329 280.652 24.6075 280.899 25.2403C281.146 25.8731 281.258 26.5503 281.229 27.2289V32.4211L282.313 30.5188L287.937 22.3952H289.141C290.435 22.2841 291.728 22.6075 292.817 23.3142C293.571 24.0402 293.947 25.3726 293.947 27.2933V46.5914H289.867V26.8522H289.536L281.202 39.01ZM276.12 25.8137C275.901 25.8055 275.684 25.8448 275.483 25.9289C275.281 26.013 275.1 26.1399 274.953 26.3008C274.664 26.617 274.507 27.0308 274.511 27.4587C274.509 27.8999 274.666 28.3272 274.953 28.6625C275.095 28.832 275.274 28.9666 275.476 29.0558C275.679 29.145 275.899 29.1866 276.12 29.1771C276.348 29.193 276.578 29.1575 276.791 29.0733C277.004 28.989 277.195 28.8581 277.351 28.6901C277.652 28.3517 277.813 27.9115 277.801 27.4587C277.803 27.0297 277.642 26.6161 277.351 26.3008C277.194 26.1344 277.002 26.0045 276.79 25.9203C276.577 25.8362 276.348 25.7998 276.12 25.8137Z" fill="white"/>
<path d="M310.351 28.929C312.097 28.929 313.31 29.2139 313.972 29.7928C314.793 30.4729 315.203 31.8146 315.203 33.8179V41.822C315.218 42.4911 315.095 43.1561 314.842 43.7758C314.589 44.3954 314.211 44.9565 313.733 45.4243C313.252 45.9059 312.678 46.2846 312.046 46.5374C311.414 46.7901 310.737 46.9117 310.057 46.8947C309.377 46.9049 308.703 46.7802 308.072 46.5278C307.441 46.2755 306.866 45.9004 306.381 45.4243C305.882 44.9682 305.487 44.411 305.22 43.7898C304.954 43.1686 304.824 42.4977 304.837 41.822C304.816 41.1277 304.943 40.4367 305.209 39.795C305.475 39.1533 305.874 38.5756 306.381 38.1002C306.866 37.6242 307.441 37.2491 308.072 36.9967C308.703 36.7443 309.377 36.6197 310.057 36.6299C310.302 36.613 310.547 36.613 310.792 36.6299H311.114V34.4887C311.114 33.6433 311.013 33.1195 310.792 32.9541C310.349 32.631 309.803 32.4807 309.257 32.5313H298.487V29.3609C298.762 28.5709 299.104 27.8055 299.507 27.0727C300.197 25.8497 301.136 24.7852 302.264 23.9483C303.682 22.871 305.429 22.3189 307.208 22.386C308.415 22.3903 309.615 22.5793 310.764 22.9466C311.636 23.209 312.538 23.3513 313.448 23.3693C313.966 23.3824 314.484 23.3173 314.983 23.1763C315.263 23.1127 315.535 23.0139 315.791 22.8823L317.124 26.4203C316.847 26.6268 316.536 26.7824 316.205 26.8797C315.52 27.0865 314.806 27.1797 314.091 27.1554C312.847 27.1444 311.611 26.9651 310.415 26.6224C309.523 26.3381 308.594 26.1864 307.658 26.1721C306.433 26.0583 305.211 26.4313 304.258 27.2106C303.723 27.7 303.281 28.2822 302.953 28.929H310.351ZM310.029 43.3567C310.26 43.3678 310.49 43.3274 310.703 43.2384C310.916 43.1494 311.107 43.014 311.261 42.8421C311.54 42.503 311.693 42.0775 311.693 41.6382C311.702 41.1919 311.548 40.7574 311.261 40.416C310.93 40.0894 310.485 39.9062 310.02 39.9062C309.556 39.9062 309.11 40.0894 308.78 40.416C308.495 40.7489 308.338 41.1726 308.338 41.6107C308.346 42.0566 308.516 42.4845 308.816 42.8145C308.971 42.9811 309.159 43.113 309.368 43.2017C309.577 43.2904 309.802 43.3339 310.029 43.3291" fill="white"/>
<path d="M311.527 10.026C312.122 10.0166 312.712 10.1301 313.261 10.3594C313.809 10.5887 314.305 10.9288 314.716 11.3585C315.142 11.7769 315.477 12.2782 315.702 12.8314C315.926 13.3846 316.035 13.978 316.021 14.5749C316.061 15.2399 315.956 15.9057 315.713 16.5262C315.471 17.1466 315.096 17.7068 314.615 18.168C313.791 18.9816 312.685 19.4457 311.527 19.4637C310.735 19.4985 309.945 19.3509 309.218 19.0322C308.492 18.7136 307.848 18.2324 307.337 17.6258C306.294 16.3277 305.758 14.6947 305.83 13.031C305.811 11.2649 306.405 9.5469 307.511 8.16971C308.74 6.71531 310.442 5.73943 312.318 5.41283C313.59 5.27184 314.806 4.81367 315.856 4.08034C316.312 3.73836 316.677 3.29049 316.921 2.77542L320 4.2917C319.712 5.10322 319.247 5.84077 318.64 6.45126C317.525 7.47843 316.091 8.09157 314.578 8.18809C311.49 8.67514 309.983 9.4195 309.983 10.3752L310.526 10.2006C310.849 10.0921 311.186 10.0333 311.527 10.026ZM309.515 14.5749C309.503 14.8042 309.538 15.0335 309.619 15.2485C309.7 15.4635 309.824 15.6597 309.983 15.8246C310.317 16.1268 310.755 16.2881 311.206 16.2749C311.635 16.2781 312.049 16.117 312.363 15.8246C312.532 15.6646 312.665 15.4702 312.752 15.2546C312.839 15.039 312.879 14.8072 312.869 14.5749C312.882 14.3448 312.844 14.1147 312.757 13.9015C312.669 13.6883 312.535 13.4976 312.363 13.3435C312.044 13.0627 311.631 12.9118 311.206 12.9207C310.759 12.9019 310.323 13.0529 309.983 13.3435C309.821 13.5026 309.695 13.6951 309.614 13.9077C309.533 14.1203 309.499 14.3479 309.515 14.5749Z" fill="white"/>
<path d="M111.534 14.244H111.948C112.197 14.2365 112.446 14.2799 112.679 14.3718C112.911 14.4637 113.123 14.602 113.3 14.7784C113.477 14.9547 113.616 15.1653 113.709 15.3974C113.802 15.6294 113.847 15.878 113.841 16.1279C113.843 16.4523 113.754 16.7708 113.583 17.0469C113.411 17.3202 113.174 17.5474 112.894 17.7085C112.614 17.8681 112.298 17.9536 111.975 17.9566C111.727 17.9593 111.482 17.9118 111.253 17.8171C111.024 17.7223 110.816 17.5823 110.643 17.4053C110.47 17.2383 110.334 17.0383 110.24 16.8173C110.147 16.5962 110.1 16.3586 110.101 16.1187V6.66263C110.166 6.03344 110.014 5.40073 109.669 4.87066C109.342 4.58816 108.939 4.40903 108.511 4.35604C108.15 4.28614 107.784 4.24619 107.417 4.23658V2.77543C107.664 2.39175 107.975 2.05301 108.336 1.77377C108.889 1.34693 109.577 1.13183 110.275 1.16725C110.81 1.17279 111.339 1.27555 111.837 1.47051C112.206 1.60893 112.593 1.68952 112.986 1.70944C113.135 1.71624 113.284 1.6976 113.427 1.6543L113.593 1.57159L113.951 2.90409C113.841 2.96935 113.724 3.02176 113.602 3.06031C113.378 3.14192 113.141 3.17937 112.903 3.17058C112.447 3.16224 111.995 3.07197 111.571 2.90409C111.159 2.75214 110.724 2.67135 110.284 2.66516C109.968 2.6486 109.653 2.70849 109.365 2.83976C109.204 2.91361 109.058 3.01639 108.933 3.14302C109.3 3.17629 109.661 3.25342 110.009 3.37276C110.449 3.49603 110.834 3.7649 111.102 4.13549C111.455 4.64965 111.624 5.26842 111.58 5.8907L111.534 14.244ZM111.948 16.6609C112.032 16.6649 112.117 16.6496 112.195 16.6162C112.273 16.5828 112.342 16.5321 112.398 16.4679C112.499 16.35 112.554 16.2002 112.554 16.0452C112.557 15.8813 112.502 15.7217 112.398 15.5949C112.34 15.5351 112.27 15.4886 112.192 15.4584C112.114 15.4283 112.031 15.4153 111.948 15.4203C111.864 15.4165 111.78 15.4309 111.702 15.4626C111.624 15.4944 111.555 15.5426 111.497 15.6041C111.396 15.7288 111.341 15.8846 111.341 16.0452C111.34 16.202 111.4 16.3532 111.507 16.4679C111.562 16.5299 111.63 16.5791 111.706 16.6124C111.782 16.6457 111.865 16.6623 111.948 16.6609Z" fill="white"/>
<path d="M118.84 11.4412C119.3 11.3953 119.763 11.5053 120.154 11.7536C120.318 11.955 120.44 12.1873 120.513 12.4367C120.585 12.6861 120.607 12.9476 120.577 13.2056V16.1095C120.583 16.352 120.539 16.5932 120.447 16.8178C120.355 17.0424 120.218 17.2456 120.044 17.4144C119.869 17.5881 119.66 17.7248 119.432 17.8164C119.203 17.9079 118.958 17.9525 118.711 17.9474C118.214 17.9506 117.736 17.7593 117.379 17.4144C117.197 17.2498 117.053 17.0481 116.956 16.823C116.86 16.5978 116.813 16.3545 116.818 16.1095C116.811 15.8575 116.857 15.6068 116.953 15.3739C117.05 15.1411 117.195 14.9314 117.379 14.7586C117.554 14.585 117.762 14.4483 117.991 14.3567C118.22 14.2651 118.465 14.2206 118.711 14.2256H119.097V13.4353C119.097 13.1229 119.097 12.9391 118.978 12.8748C118.816 12.7647 118.621 12.7129 118.426 12.7277H114.539V11.5882C114.638 11.3027 114.761 11.0261 114.907 10.7612C115.158 10.3214 115.496 9.9369 115.899 9.63085C116.415 9.24488 117.047 9.04706 117.691 9.07029C118.128 9.07378 118.561 9.14191 118.978 9.27246C119.294 9.36942 119.621 9.42199 119.952 9.42868C120.138 9.43045 120.323 9.40884 120.503 9.36435C120.604 9.33507 120.702 9.29821 120.797 9.25408L121.284 10.5314C121.182 10.6104 121.062 10.6639 120.935 10.6877C120.689 10.7698 120.431 10.8072 120.172 10.7979C119.722 10.7917 119.274 10.7268 118.84 10.6049C118.515 10.5052 118.178 10.4496 117.838 10.4395C117.619 10.4203 117.398 10.4446 117.189 10.5108C116.979 10.577 116.784 10.684 116.616 10.8255C116.418 10.9951 116.258 11.205 116.147 11.4412H118.84ZM118.711 16.6609C118.796 16.6649 118.881 16.6496 118.959 16.6162C119.037 16.5828 119.106 16.5321 119.161 16.4679C119.266 16.3523 119.322 16.2009 119.318 16.0452C119.325 15.8806 119.269 15.7195 119.161 15.5949C119.103 15.5351 119.033 15.4885 118.955 15.4584C118.878 15.4283 118.794 15.4153 118.711 15.4203C118.627 15.4164 118.544 15.4309 118.466 15.4626C118.388 15.4943 118.318 15.5426 118.261 15.6041C118.16 15.7288 118.104 15.8846 118.105 16.0452C118.107 16.2031 118.17 16.3541 118.279 16.4679C118.332 16.5306 118.398 16.5806 118.473 16.614C118.548 16.6474 118.629 16.6634 118.711 16.6609Z" fill="white"/>
<path d="M126.256 12.7461C126.008 12.7525 125.761 12.7085 125.53 12.6169C125.3 12.5253 125.09 12.3879 124.914 12.2131C124.733 12.0354 124.59 11.822 124.495 11.5863C124.4 11.3506 124.355 11.0978 124.363 10.8439C124.355 10.5972 124.401 10.3517 124.497 10.1247C124.594 9.8977 124.74 9.69463 124.923 9.52978C125.1 9.35941 125.309 9.22611 125.538 9.13772C125.766 9.04934 126.011 9.00767 126.256 9.01516C126.5 9.00361 126.743 9.04438 126.97 9.13473C127.196 9.22508 127.401 9.36292 127.57 9.53897C127.742 9.70862 127.878 9.91212 127.968 10.1367C128.058 10.3612 128.101 10.602 128.094 10.8439V16.2382C128.152 16.712 128.023 17.1899 127.735 17.5707C127.399 17.7923 126.997 17.8928 126.596 17.8555H126.054L122.378 13.6559L123.499 12.691L126.66 16.2841V12.7186H126.559H126.283M126.283 10.2833C126.204 10.2804 126.124 10.2954 126.051 10.3272C125.978 10.359 125.913 10.4068 125.861 10.4671C125.758 10.5804 125.703 10.7281 125.704 10.8806C125.702 11.0388 125.758 11.1923 125.861 11.3126C125.912 11.3745 125.976 11.4235 126.05 11.4555C126.123 11.4874 126.203 11.5014 126.283 11.4964C126.367 11.5033 126.451 11.4912 126.529 11.461C126.607 11.4307 126.677 11.3831 126.734 11.3217C126.832 11.1962 126.884 11.0403 126.881 10.8806C126.881 10.73 126.829 10.5838 126.734 10.4671C126.678 10.4041 126.608 10.3548 126.53 10.3229C126.452 10.291 126.367 10.2775 126.283 10.2833Z" fill="white"/>
<path d="M138.653 15.1722L138.57 13.8489V9.09786H140.031V17.8555H138.34L136.3 12.7461L136.034 11.8272L135.813 12.7461L133.773 17.8555H132.045V12.7186H131.926H131.669C131.42 12.7237 131.173 12.6783 130.942 12.5851C130.711 12.4919 130.502 12.3528 130.327 12.1764C130.143 12.0013 129.998 11.7901 129.9 11.556C129.802 11.3219 129.753 11.0701 129.757 10.8163C129.753 10.5693 129.801 10.3241 129.899 10.0974C129.998 9.87073 130.143 9.66776 130.327 9.5022C130.504 9.3307 130.715 9.19675 130.945 9.10833C131.176 9.01992 131.422 8.97885 131.669 8.98758C131.911 8.97775 132.153 9.01841 132.38 9.107C132.606 9.19558 132.811 9.33015 132.983 9.5022C133.158 9.67188 133.295 9.87669 133.385 10.1032C133.475 10.3297 133.517 10.5727 133.506 10.8163V13.8213L133.405 15.1446L133.819 13.8213L135.739 9.07029H136.364L138.202 13.8213L138.653 15.1722ZM131.669 10.3109C131.587 10.3072 131.506 10.3218 131.432 10.3536C131.357 10.3854 131.29 10.4336 131.237 10.4947C131.134 10.608 131.079 10.7556 131.08 10.9082C131.078 11.0664 131.134 11.2198 131.237 11.3401C131.289 11.4028 131.355 11.4522 131.43 11.4841C131.505 11.5161 131.587 11.5297 131.669 11.5239C131.749 11.5301 131.83 11.5176 131.905 11.4873C131.98 11.457 132.047 11.4098 132.1 11.3493C132.157 11.2915 132.202 11.2223 132.23 11.1463C132.259 11.0704 132.271 10.9892 132.266 10.9082C132.269 10.8315 132.256 10.755 132.228 10.6837C132.199 10.6124 132.156 10.548 132.1 10.4947C132.047 10.4331 131.981 10.3845 131.906 10.3527C131.831 10.3208 131.75 10.3065 131.669 10.3109Z" fill="white"/>
<path d="M145.076 13.3618C145.34 13.4099 145.607 13.4345 145.876 13.4354H146.216H146.399V14.7219H145.554C145.191 14.7086 144.83 14.7648 144.488 14.8873C144.24 14.9884 144.102 15.2457 144.102 15.6501C144.087 15.767 144.098 15.886 144.137 15.9976C144.175 16.1092 144.239 16.2105 144.323 16.2933C144.555 16.4113 144.816 16.4622 145.076 16.4404H147.263C147.45 16.4527 147.636 16.4078 147.796 16.3117C147.914 16.1466 147.967 15.9435 147.943 15.7419V9.09787H149.432V16.082C149.46 16.3433 149.435 16.6078 149.358 16.859C149.28 17.1103 149.152 17.3431 148.982 17.5431C148.593 17.7881 148.134 17.898 147.677 17.8556H144.396C143.939 17.8939 143.481 17.7844 143.091 17.5431C142.924 17.3416 142.799 17.1082 142.725 16.857C142.651 16.6058 142.628 16.3421 142.659 16.082V15.6409C142.625 15.209 142.753 14.78 143.018 14.437C143.184 14.2366 143.39 14.0737 143.624 13.9592C143.33 13.7858 143.073 13.5544 142.871 13.2791C142.502 12.7407 142.33 12.0916 142.384 11.4412C142.363 11.1152 142.409 10.7885 142.518 10.4805C142.627 10.1726 142.797 9.88987 143.018 9.64925C143.211 9.45415 143.442 9.29932 143.696 9.19365C143.95 9.08799 144.222 9.03357 144.497 9.03354C145 9.0202 145.489 9.20499 145.857 9.54816C146.038 9.71464 146.181 9.91822 146.276 10.145C146.372 10.3718 146.417 10.6165 146.409 10.8623C146.415 11.1125 146.37 11.3614 146.277 11.5937C146.184 11.826 146.044 12.0368 145.866 12.2131C145.686 12.3897 145.472 12.5274 145.236 12.6175C145.001 12.7076 144.749 12.7483 144.497 12.7369H144.203C144.25 12.8579 144.322 12.9675 144.414 13.0586C144.593 13.2395 144.825 13.3586 145.076 13.3986M144.497 10.3477C144.416 10.3418 144.334 10.3555 144.259 10.3874C144.184 10.4194 144.118 10.4688 144.065 10.5314C144.013 10.5865 143.972 10.6514 143.945 10.7224C143.919 10.7935 143.906 10.8691 143.909 10.945C143.905 11.0252 143.916 11.1055 143.943 11.1812C143.97 11.2569 144.011 11.3266 144.065 11.3861C144.121 11.4444 144.188 11.4902 144.262 11.5204C144.337 11.5505 144.417 11.5642 144.497 11.5607C144.582 11.5658 144.666 11.5529 144.746 11.5228C144.825 11.4927 144.897 11.4461 144.957 11.3861C145.055 11.2605 145.107 11.1046 145.104 10.945C145.104 10.7943 145.052 10.6482 144.957 10.5314C144.898 10.4698 144.826 10.4214 144.747 10.3897C144.668 10.358 144.582 10.3437 144.497 10.3477Z" fill="white"/>
<path d="M155.065 17.8556V11.9007C155.077 11.7068 155.05 11.5124 154.986 11.3293C154.921 11.1461 154.82 10.9779 154.688 10.8347C154.569 10.7116 154.426 10.6134 154.268 10.5456C154.111 10.4778 153.941 10.4417 153.769 10.4396C153.376 10.437 152.996 10.5812 152.703 10.8439C152.5 11.0283 152.329 11.2458 152.198 11.4872L151.059 10.6877C151.292 10.2778 151.604 9.91857 151.977 9.63087C152.519 9.18818 153.209 8.96808 153.907 9.01517C154.603 8.9913 155.279 9.2422 155.791 9.71358C156.061 9.98658 156.269 10.3138 156.402 10.6735C156.535 11.0331 156.59 11.417 156.563 11.7996V17.8556H155.065Z" fill="white"/>
<path d="M160.607 16.4128V12.7369C160.564 12.7308 160.521 12.7308 160.478 12.7369H160.175C159.927 12.7408 159.682 12.6948 159.453 12.6016C159.224 12.5085 159.016 12.3701 158.842 12.1948C158.663 12.0173 158.523 11.805 158.43 11.571C158.336 11.3371 158.292 11.0864 158.3 10.8347C158.301 10.5107 158.39 10.193 158.557 9.91574C158.718 9.63665 158.954 9.40764 159.237 9.25409C159.517 9.09533 159.834 9.01293 160.156 9.01516C160.402 9.00563 160.648 9.04726 160.877 9.13742C161.107 9.22758 161.315 9.3643 161.489 9.53896C161.667 9.70587 161.808 9.90823 161.903 10.133C161.998 10.3578 162.044 10.5999 162.04 10.8439V16.4128H164.328C164.515 16.4251 164.701 16.3802 164.861 16.2841C164.926 16.205 164.973 16.1138 165.002 16.016C165.03 15.9181 165.039 15.8156 165.027 15.7144V9.09786H166.497V16.082C166.553 16.6027 166.408 17.1252 166.093 17.5431C165.691 17.7819 165.226 17.891 164.76 17.8555H159.136V16.4128H160.607ZM160.175 10.3109C160.092 10.3043 160.009 10.3176 159.932 10.3496C159.855 10.3815 159.787 10.4313 159.734 10.4947C159.634 10.6089 159.581 10.7567 159.586 10.9082C159.581 11.0696 159.637 11.2271 159.743 11.3493C159.798 11.4082 159.865 11.4543 159.939 11.4845C160.014 11.5146 160.094 11.5281 160.175 11.5239C160.254 11.5274 160.332 11.5135 160.405 11.4834C160.478 11.4532 160.544 11.4075 160.597 11.3493C160.695 11.2283 160.748 11.0775 160.748 10.922C160.748 10.7665 160.695 10.6157 160.597 10.4947C160.544 10.4331 160.478 10.3845 160.403 10.3527C160.328 10.3208 160.247 10.3065 160.165 10.3109" fill="white"/>
<path d="M172.176 17.8556V11.9007C172.187 11.7062 172.159 11.5114 172.092 11.3282C172.026 11.145 171.923 10.9771 171.79 10.8347C171.547 10.5878 171.218 10.446 170.871 10.4396C170.481 10.4367 170.103 10.581 169.814 10.8439C169.611 11.0283 169.44 11.2458 169.309 11.4872L168.151 10.6877C168.395 10.2855 168.706 9.92808 169.07 9.63088C169.616 9.19538 170.303 8.97619 171 9.01518C171.363 8.9953 171.726 9.05375 172.065 9.18656C172.403 9.31937 172.709 9.52343 172.962 9.78491C173.215 10.0464 173.408 10.3592 173.53 10.702C173.651 11.0449 173.697 11.4098 173.665 11.7721V17.828L172.176 17.8556Z" fill="white"/>
<path d="M175.521 11.2023C175.804 10.6734 176.188 10.2051 176.652 9.82386C177.392 9.23504 178.327 8.94635 179.271 9.01518C179.881 9.00225 180.487 9.12464 181.044 9.37357C181.558 9.60062 181.995 9.9707 182.303 10.4396C182.625 10.9504 182.788 11.5452 182.772 12.1488V17.8556H181.301V15.3376C181.26 15.0433 181.143 14.7647 180.961 14.5289C180.712 14.1705 180.401 13.8593 180.043 13.61C179.673 13.3361 179.225 13.1879 178.765 13.1873C178.634 13.1864 178.503 13.212 178.382 13.2625C178.26 13.313 178.15 13.3874 178.058 13.4813C177.968 13.5667 177.897 13.6694 177.848 13.7831C177.799 13.8968 177.773 14.0192 177.773 14.143V14.3359C177.825 14.3427 177.877 14.3427 177.929 14.3359C178.033 14.3233 178.138 14.3233 178.241 14.3359C178.485 14.3269 178.728 14.3683 178.955 14.4575C179.182 14.5467 179.389 14.6817 179.561 14.8542C179.734 15.0267 179.869 15.2329 179.958 15.46C180.047 15.6871 180.088 15.9301 180.079 16.1739C180.088 16.4181 180.046 16.6616 179.954 16.8881C179.862 17.1147 179.723 17.3191 179.546 17.488C179.2 17.8264 178.735 18.0146 178.251 18.0118C178.001 18.0194 177.753 17.976 177.52 17.8844C177.288 17.7927 177.077 17.6547 176.9 17.4788C176.727 17.3095 176.591 17.106 176.501 16.8814C176.41 16.6567 176.368 16.4158 176.376 16.1739V14.097C176.375 13.7006 176.47 13.3099 176.652 12.9575C176.834 12.5783 177.121 12.2594 177.479 12.0386C177.867 11.7978 178.318 11.6764 178.774 11.6893C179.399 11.6638 180.012 11.8554 180.511 12.2315C180.864 12.487 181.175 12.7972 181.43 13.1505V12.3969C181.455 12.1064 181.4 11.8147 181.272 11.5526C181.144 11.2905 180.948 11.0679 180.704 10.9082C180.295 10.6265 179.813 10.4671 179.317 10.4488C178.697 10.403 178.082 10.5861 177.589 10.9634C177.304 11.1952 177.069 11.4829 176.9 11.8088L175.521 11.2023ZM178.278 16.6609C178.361 16.6642 178.444 16.6485 178.521 16.6151C178.597 16.5817 178.665 16.5314 178.719 16.4679C178.813 16.347 178.865 16.1984 178.866 16.0452C178.868 15.883 178.817 15.7247 178.719 15.5949C178.663 15.5358 178.594 15.4897 178.518 15.4595C178.442 15.4294 178.36 15.416 178.278 15.4203C178.196 15.4184 178.114 15.4337 178.038 15.4654C177.962 15.4971 177.894 15.5443 177.837 15.6041C177.723 15.7225 177.66 15.8809 177.662 16.0452C177.661 16.1238 177.676 16.2019 177.706 16.2745C177.736 16.3472 177.781 16.413 177.837 16.4679C177.892 16.5308 177.959 16.5808 178.036 16.6142C178.112 16.6476 178.195 16.6635 178.278 16.6609Z" fill="white"/>
</g>
<defs>
<clipPath id="clip0_141_2931">
<rect width="320" height="64.125" fill="white" transform="translate(0 0.9375)"/>
</clipPath>
</defs>
</svg>
