<svg width="320" height="114" viewBox="0 0 320 114" fill="none" xmlns="http://www.w3.org/2000/svg">
<path d="M23.52 8.2575L18.576 24.9375H15.48L11.976 12.3135L8.256 24.9375L5.184 24.9615L0.456 8.2575H3.36L6.816 21.8415L10.56 8.2575H13.632L17.112 21.7695L20.592 8.2575H23.52ZM37.8966 18.0015C37.8966 18.4975 37.8646 18.9455 37.8006 19.3455H27.6966C27.7766 20.4015 28.1686 21.2495 28.8726 21.8895C29.5766 22.5295 30.4406 22.8495 31.4646 22.8495C32.9366 22.8495 33.9766 22.2335 34.5846 21.0015H37.5366C37.1366 22.2175 36.4086 23.2175 35.3526 24.0015C34.3126 24.7695 33.0166 25.1535 31.4646 25.1535C30.2006 25.1535 29.0646 24.8735 28.0566 24.3135C27.0646 23.7375 26.2806 22.9375 25.7046 21.9135C25.1446 20.8735 24.8646 19.6735 24.8646 18.3135C24.8646 16.9535 25.1366 15.7615 25.6806 14.7375C26.2406 13.6975 27.0166 12.8975 28.0086 12.3375C29.0166 11.7775 30.1686 11.4975 31.4646 11.4975C32.7126 11.4975 33.8246 11.7695 34.8006 12.3135C35.7766 12.8575 36.5366 13.6255 37.0806 14.6175C37.6246 15.5935 37.8966 16.7215 37.8966 18.0015ZM35.0406 17.1375C35.0246 16.1295 34.6646 15.3215 33.9606 14.7135C33.2566 14.1055 32.3846 13.8015 31.3446 13.8015C30.4006 13.8015 29.5926 14.1055 28.9206 14.7135C28.2486 15.3055 27.8486 16.1135 27.7206 17.1375H35.0406ZM43.3251 7.1775V24.9375H40.5891V7.1775H43.3251ZM46.0052 18.3135C46.0052 16.9535 46.2772 15.7615 46.8212 14.7375C47.3812 13.6975 48.1492 12.8975 49.1252 12.3375C50.1012 11.7775 51.2212 11.4975 52.4852 11.4975C54.0852 11.4975 55.4052 11.8815 56.4452 12.6495C57.5012 13.4015 58.2132 14.4815 58.5812 15.8895H55.6292C55.3892 15.2335 55.0052 14.7215 54.4772 14.3535C53.9492 13.9855 53.2852 13.8015 52.4852 13.8015C51.3652 13.8015 50.4692 14.2015 49.7972 15.0015C49.1412 15.7855 48.8132 16.8895 48.8132 18.3135C48.8132 19.7375 49.1412 20.8495 49.7972 21.6495C50.4692 22.4495 51.3652 22.8495 52.4852 22.8495C54.0692 22.8495 55.1172 22.1535 55.6292 20.7615H58.5812C58.1972 22.1055 57.4772 23.1775 56.4212 23.9775C55.3652 24.7615 54.0532 25.1535 52.4852 25.1535C51.2212 25.1535 50.1012 24.8735 49.1252 24.3135C48.1492 23.7375 47.3812 22.9375 46.8212 21.9135C46.2772 20.8735 46.0052 19.6735 46.0052 18.3135ZM67.0438 25.1535C65.7958 25.1535 64.6678 24.8735 63.6598 24.3135C62.6518 23.7375 61.8598 22.9375 61.2838 21.9135C60.7078 20.8735 60.4198 19.6735 60.4198 18.3135C60.4198 16.9695 60.7158 15.7775 61.3078 14.7375C61.8998 13.6975 62.7078 12.8975 63.7318 12.3375C64.7558 11.7775 65.8998 11.4975 67.1638 11.4975C68.4278 11.4975 69.5718 11.7775 70.5958 12.3375C71.6198 12.8975 72.4278 13.6975 73.0198 14.7375C73.6118 15.7775 73.9078 16.9695 73.9078 18.3135C73.9078 19.6575 73.6038 20.8495 72.9958 21.8895C72.3878 22.9295 71.5558 23.7375 70.4998 24.3135C69.4598 24.8735 68.3078 25.1535 67.0438 25.1535ZM67.0438 22.7775C67.7478 22.7775 68.4038 22.6095 69.0118 22.2735C69.6358 21.9375 70.1398 21.4335 70.5238 20.7615C70.9078 20.0895 71.0998 19.2735 71.0998 18.3135C71.0998 17.3535 70.9158 16.5455 70.5478 15.8895C70.1798 15.2175 69.6918 14.7135 69.0838 14.3775C68.4758 14.0415 67.8198 13.8735 67.1158 13.8735C66.4118 13.8735 65.7558 14.0415 65.1478 14.3775C64.5558 14.7135 64.0838 15.2175 63.7318 15.8895C63.3798 16.5455 63.2038 17.3535 63.2038 18.3135C63.2038 19.7375 63.5638 20.8415 64.2838 21.6255C65.0198 22.3935 65.9398 22.7775 67.0438 22.7775ZM92.6205 11.4975C93.6605 11.4975 94.5885 11.7135 95.4045 12.1455C96.2365 12.5775 96.8845 13.2175 97.3485 14.0655C97.8285 14.9135 98.0685 15.9375 98.0685 17.1375V24.9375H95.3565V17.5455C95.3565 16.3615 95.0605 15.4575 94.4685 14.8335C93.8765 14.1935 93.0685 13.8735 92.0445 13.8735C91.0205 13.8735 90.2045 14.1935 89.5965 14.8335C89.0045 15.4575 88.7085 16.3615 88.7085 17.5455V24.9375H85.9965V17.5455C85.9965 16.3615 85.7005 15.4575 85.1085 14.8335C84.5165 14.1935 83.7085 13.8735 82.6845 13.8735C81.6605 13.8735 80.8445 14.1935 80.2365 14.8335C79.6445 15.4575 79.3485 16.3615 79.3485 17.5455V24.9375H76.6125V11.7135H79.3485V13.2255C79.7965 12.6815 80.3645 12.2575 81.0525 11.9535C81.7405 11.6495 82.4765 11.4975 83.2605 11.4975C84.3165 11.4975 85.2605 11.7215 86.0925 12.1695C86.9245 12.6175 87.5645 13.2655 88.0125 14.1135C88.4125 13.3135 89.0365 12.6815 89.8845 12.2175C90.7325 11.7375 91.6445 11.4975 92.6205 11.4975ZM113.67 18.0015C113.67 18.4975 113.638 18.9455 113.574 19.3455H103.47C103.55 20.4015 103.942 21.2495 104.646 21.8895C105.35 22.5295 106.214 22.8495 107.238 22.8495C108.71 22.8495 109.75 22.2335 110.358 21.0015H113.31C112.91 22.2175 112.182 23.2175 111.126 24.0015C110.086 24.7695 108.79 25.1535 107.238 25.1535C105.974 25.1535 104.838 24.8735 103.83 24.3135C102.838 23.7375 102.054 22.9375 101.478 21.9135C100.918 20.8735 100.638 19.6735 100.638 18.3135C100.638 16.9535 100.91 15.7615 101.454 14.7375C102.014 13.6975 102.79 12.8975 103.782 12.3375C104.79 11.7775 105.942 11.4975 107.238 11.4975C108.486 11.4975 109.598 11.7695 110.574 12.3135C111.55 12.8575 112.31 13.6255 112.854 14.6175C113.398 15.5935 113.67 16.7215 113.67 18.0015ZM110.814 17.1375C110.798 16.1295 110.438 15.3215 109.734 14.7135C109.03 14.1055 108.158 13.8015 107.118 13.8015C106.174 13.8015 105.366 14.1055 104.694 14.7135C104.022 15.3055 103.622 16.1135 103.494 17.1375H110.814ZM125.789 13.9455V21.2655C125.789 21.7615 125.901 22.1215 126.125 22.3455C126.365 22.5535 126.765 22.6575 127.325 22.6575H129.005V24.9375H126.845C125.613 24.9375 124.669 24.6495 124.013 24.0735C123.357 23.4975 123.029 22.5615 123.029 21.2655V13.9455H121.469V11.7135H123.029V8.4255H125.789V11.7135H129.005V13.9455H125.789ZM137.263 25.1535C136.015 25.1535 134.887 24.8735 133.879 24.3135C132.871 23.7375 132.079 22.9375 131.503 21.9135C130.927 20.8735 130.639 19.6735 130.639 18.3135C130.639 16.9695 130.935 15.7775 131.527 14.7375C132.119 13.6975 132.927 12.8975 133.951 12.3375C134.975 11.7775 136.119 11.4975 137.383 11.4975C138.647 11.4975 139.791 11.7775 140.815 12.3375C141.839 12.8975 142.647 13.6975 143.239 14.7375C143.831 15.7775 144.127 16.9695 144.127 18.3135C144.127 19.6575 143.823 20.8495 143.215 21.8895C142.607 22.9295 141.775 23.7375 140.719 24.3135C139.679 24.8735 138.527 25.1535 137.263 25.1535ZM137.263 22.7775C137.967 22.7775 138.623 22.6095 139.231 22.2735C139.855 21.9375 140.359 21.4335 140.743 20.7615C141.127 20.0895 141.319 19.2735 141.319 18.3135C141.319 17.3535 141.135 16.5455 140.767 15.8895C140.399 15.2175 139.911 14.7135 139.303 14.3775C138.695 14.0415 138.039 13.8735 137.335 13.8735C136.631 13.8735 135.975 14.0415 135.367 14.3775C134.775 14.7135 134.303 15.2175 133.951 15.8895C133.599 16.5455 133.423 17.3535 133.423 18.3135C133.423 19.7375 133.783 20.8415 134.503 21.6255C135.239 22.3935 136.159 22.7775 137.263 22.7775Z" fill="white"/>
<g clip-path="url(#clip0_249_4106)">
<mask id="mask0_249_4106" style="mask-type:luminance" maskUnits="userSpaceOnUse" x="4" y="50" width="76" height="60">
<path d="M40.1401 83.8579C43.5954 76.5063 47.4918 68.3183 52.0223 61.5548C53.0515 61.8029 54.044 62.0235 55.0365 62.2073C50.5428 68.4746 46.775 76.5063 42.8603 84.1704C39.4142 90.9247 35.9037 98.8186 29.7927 102.292C33.4961 97.5412 36.7584 91.0074 40.1401 83.8579ZM61.3865 60.5623C67.3873 53.3026 74.4541 52.4204 76.4758 54.1296C78.0932 55.4897 76.4758 59.0185 70.0431 60.0569C67.8693 60.429 65.6687 60.6226 63.4633 60.6358C62.7557 60.6358 62.0573 60.6358 61.3405 60.5715M56.7274 59.965C55.7533 59.772 54.7148 59.5515 53.6213 59.3034C55.9095 56.0778 58.7021 53.2418 61.8919 50.9041C58.2161 51.4463 54.6965 54.4145 51.3698 58.7428C47.547 57.7319 42.9981 56.3259 37.0984 54.488C29.0851 52.0252 25.1519 50.6651 16.1002 50.6651C12.1303 50.6651 3.23473 54.1939 4.61317 58.7336H4.59479C5.89972 62.8597 10.8529 61.5456 10.1086 59.9742C8.46361 59.0552 7.20464 55.2783 14.492 53.3026C18.5905 52.1722 26.4385 53.3577 35.8854 56.4454C40.9856 58.1179 45.5161 59.772 49.7708 60.9667C45.6447 66.9767 41.8126 74.9257 38.1736 82.6541C34.4977 90.5755 31.0608 98.3316 26.6222 103.579C25.3685 103.905 24.0763 104.059 22.781 104.038C16.9364 103.965 10.5405 96.7234 16.5413 91.3658C13.9498 90.4469 8.32577 92.8637 9.18959 98.1202C10.2648 104.682 18.8479 106.483 23.9665 106.317C21.9462 108.141 19.4689 109.383 16.7986 109.91C20.3825 110.057 23.507 108.624 26.3833 106.069C35.3064 104.47 41.1786 95.3266 47.1059 84.9331C51.1952 77.6458 55.4224 68.787 59.7324 62.7219C72.8275 63.5489 80.3262 59.2482 79.8208 54.828C79.5635 52.6225 77.9094 50.6468 73.2227 50.6468C66.4775 50.6468 61.2762 54.3226 56.7457 59.9466" fill="white"/>
</mask>
<g mask="url(#mask0_249_4106)">
<mask id="mask1_249_4106" style="mask-type:luminance" maskUnits="userSpaceOnUse" x="1" y="50" width="83" height="64">
<path d="M83.7172 50.4354H1.08437V113.494H83.7172V50.4354Z" fill="white"/>
</mask>
<g mask="url(#mask1_249_4106)">
<path d="M83.7172 50.4354H1.08437V113.494H83.7172V50.4354Z" fill="white"/>
</g>
</g>
<path d="M7.416 72.858V65.6626H15.0526V72.858H22.4594V80.2648H15.0526V87.4787H7.416V80.2648H0V72.858H7.416Z" fill="white"/>
<path d="M104.256 102.035H100.268V112.86H99.0179V102.035H95.0572V100.987H104.256V102.035Z" fill="white"/>
<path d="M116.974 112.86H115.771V107.08H108.235V112.86H107.004V100.987H108.235V106.097H115.771V100.987H116.974V112.86Z" fill="white"/>
<path d="M131.411 112.86H130.033L128.333 109.083H122.222L120.595 112.86H119.263L124.556 100.987H125.833L131.411 112.86ZM127.928 108.155L125.171 102.182L122.617 108.155H127.928Z" fill="white"/>
<path d="M135.243 100.987H134.021V112.851H135.243V100.987Z" fill="white"/>
<path d="M149.331 112.86H148.026L140.509 102.743L140.628 112.86H139.369V100.987H140.628L148.191 111.215L148.109 100.987H149.331V112.86Z" fill="white"/>
<path d="M163.749 112.86H162.353L160.662 109.083H154.606L152.952 112.86H151.628L156.921 100.987H158.208L163.749 112.86ZM160.257 108.155L157.5 102.182L154.964 108.155H160.257Z" fill="white"/>
<path d="M176.532 112.86H174.896L169.631 106.529L167.269 108.459V112.86H166.056V100.987H167.269V107.19L174.621 100.987H176.284L170.43 105.849L176.532 112.86Z" fill="white"/>
<path d="M189.379 112.86H187.982L186.291 109.083H180.226L178.59 112.86H177.258L182.542 100.987H183.792L189.379 112.86ZM185.878 108.155L183.121 102.182L180.575 108.155H185.878Z" fill="white"/>
<path d="M202.171 112.86H200.581L198.835 110.352C198.38 109.637 197.864 108.963 197.291 108.339C196.969 108.039 196.591 107.805 196.179 107.65C195.739 107.474 195.266 107.389 194.792 107.402H192.954V112.86H191.722V100.987H197.181C197.911 100.966 198.637 101.097 199.313 101.373C199.87 101.581 200.348 101.96 200.678 102.455C201.008 102.95 201.173 103.536 201.151 104.13C201.151 106.023 199.892 107.08 197.374 107.301C198.338 107.76 199.162 108.468 199.763 109.35L202.171 112.86ZM192.908 101.98V106.437H196.345C198.636 106.437 199.782 105.674 199.782 104.149C199.784 103.851 199.721 103.556 199.598 103.285C199.462 103.005 199.26 102.762 199.01 102.577C198.706 102.35 198.354 102.196 197.981 102.127C197.455 102.018 196.918 101.968 196.382 101.98H192.908Z" fill="white"/>
<path d="M206.049 100.987H204.827V112.851H206.049V100.987Z" fill="white"/>
<path d="M220.137 112.86H218.823L211.296 102.743L211.425 112.86H210.175V100.987H211.425L218.997 111.215L218.914 100.987H220.137V112.86Z" fill="white"/>
<path d="M239.674 112.86H238.488V107.08H230.944V112.86H229.721V100.987H230.944V106.097H238.488V100.987H239.674V112.86Z" fill="white"/>
<path d="M255.131 106.942C255.167 107.751 255.043 108.559 254.766 109.319C254.488 110.079 254.062 110.777 253.513 111.372C252.935 111.948 252.241 112.397 251.478 112.688C250.715 112.979 249.899 113.107 249.084 113.062C247.968 113.097 246.863 112.84 245.877 112.318C245.002 111.813 244.281 111.079 243.791 110.195C243.26 109.195 242.998 108.074 243.028 106.942C242.99 106.127 243.113 105.311 243.39 104.543C243.668 103.775 244.094 103.07 244.645 102.467C245.228 101.895 245.924 101.451 246.689 101.163C247.453 100.875 248.268 100.75 249.084 100.794C250.206 100.763 251.317 101.023 252.309 101.548C253.184 102.054 253.905 102.787 254.395 103.671C254.908 104.684 255.16 105.808 255.131 106.942ZM253.844 106.942C253.912 105.564 253.456 104.211 252.567 103.156C251.633 102.237 250.376 101.722 249.065 101.722C247.755 101.722 246.498 102.237 245.564 103.156C244.739 104.234 244.292 105.553 244.292 106.91C244.292 108.267 244.739 109.586 245.564 110.664C246.006 111.144 246.547 111.522 247.151 111.77C247.754 112.017 248.405 112.129 249.056 112.098C249.932 112.119 250.796 111.899 251.556 111.463C252.27 111.019 252.843 110.382 253.21 109.626C253.633 108.77 253.842 107.823 253.817 106.869" fill="white"/>
<path d="M257.658 109.295L258.871 109.194C258.879 109.62 258.978 110.041 259.162 110.426C259.346 110.811 259.61 111.152 259.937 111.427C260.649 111.94 261.513 112.199 262.39 112.162C263.035 112.178 263.677 112.075 264.283 111.859C264.765 111.684 265.18 111.363 265.469 110.94C265.73 110.568 265.871 110.126 265.873 109.672C265.873 108.468 264.743 107.687 262.464 107.319C261.278 107.192 260.141 106.783 259.147 106.124C258.833 105.859 258.586 105.524 258.426 105.145C258.267 104.767 258.199 104.356 258.228 103.946C258.21 103.495 258.307 103.048 258.51 102.644C258.712 102.241 259.014 101.895 259.385 101.64C260.257 101.044 261.299 100.747 262.354 100.794C263.464 100.73 264.567 101.016 265.506 101.612C265.889 101.911 266.198 102.295 266.406 102.733C266.615 103.172 266.719 103.654 266.71 104.139H265.515C265.368 102.504 264.348 101.695 262.455 101.695C261.689 101.664 260.932 101.859 260.277 102.256C260.012 102.421 259.794 102.651 259.643 102.925C259.491 103.198 259.412 103.505 259.413 103.818C259.413 104.948 260.451 105.711 262.51 106.088C263.728 106.263 264.902 106.672 265.965 107.291C266.328 107.548 266.618 107.895 266.807 108.298C266.995 108.701 267.076 109.146 267.04 109.589C267.047 110.077 266.943 110.561 266.737 111.004C266.525 111.441 266.21 111.82 265.818 112.107C265.37 112.429 264.869 112.671 264.339 112.824C263.742 112.998 263.122 113.081 262.501 113.072C259.551 113.072 257.906 111.822 257.695 109.313" fill="white"/>
<path d="M271.479 107.843V112.86H270.229V100.987H274.769C275.876 100.929 276.969 101.254 277.866 101.906C278.234 102.208 278.526 102.593 278.718 103.029C278.909 103.465 278.995 103.94 278.968 104.415C278.968 104.872 278.87 105.324 278.682 105.741C278.493 106.158 278.218 106.53 277.875 106.832C277.498 107.178 277.045 107.43 276.552 107.567C275.956 107.746 275.336 107.83 274.714 107.815L271.479 107.843ZM271.479 102.035V106.832H274.392C276.579 106.832 277.664 106.014 277.664 104.406C277.664 102.798 276.579 102.007 274.392 102.007L271.479 102.035Z" fill="white"/>
<path d="M283.545 100.987H282.323V112.851H283.545V100.987Z" fill="white"/>
<path d="M295.749 102.035H291.742V112.86H290.501V102.035H286.532V100.987H295.749V102.035Z" fill="white"/>
<path d="M309.055 112.86H307.668L306.013 109.083H299.939L298.294 112.86H296.971L302.264 100.987H303.541L309.055 112.86ZM305.572 108.155L302.815 102.182L300.279 108.155H305.572Z" fill="white"/>
<path d="M319.09 112.86H311.334V100.987H312.556V111.895H319.09V112.86Z" fill="white"/>
<path d="M94.9928 63.0435L95.2501 56.3351L91.3813 63.4295H88.9553L86.4925 55.0027C86.3362 55.0027 86.2352 54.7729 86.1341 54.3226C86.1109 54.2092 86.0647 54.1017 85.9983 54.0069C85.9319 53.912 85.8468 53.8318 85.7481 53.7712C85.6384 53.714 85.5207 53.6737 85.3989 53.6518V48.9375H87.3563C87.5384 48.9326 87.7188 48.9748 87.8798 49.0602C88.0408 49.1455 88.1771 49.271 88.2752 49.4246C88.4471 49.5232 88.5825 49.6747 88.6612 49.8565C88.713 49.9727 88.7441 50.0971 88.7531 50.2241L90.9035 56.6568L95.3237 48.9375H98.9444V84.685H99.3855C99.6395 84.6691 99.8942 84.6691 100.148 84.685C100.819 84.6714 101.485 84.7948 102.106 85.0476C102.727 85.3004 103.289 85.6774 103.76 86.1554C104.246 86.6427 104.627 87.2242 104.88 87.8643C105.133 88.5043 105.252 89.1893 105.23 89.8772C105.229 90.5392 105.097 91.1944 104.841 91.8051C104.586 92.4158 104.212 92.9699 103.741 93.4355C103.27 93.901 102.712 94.2688 102.099 94.5177C101.485 94.7666 100.829 94.8916 100.167 94.8855C99.486 94.9041 98.8088 94.7833 98.1766 94.5305C97.5444 94.2776 96.9707 93.898 96.4907 93.4152C96.0108 92.9483 95.6325 92.3874 95.3795 91.7675C95.1264 91.1476 95.0042 90.4822 95.0204 89.8128L94.9928 63.0435ZM100.167 91.3567C100.398 91.3654 100.629 91.3239 100.843 91.2351C101.057 91.1463 101.25 91.0122 101.407 90.8421C101.694 90.5067 101.851 90.0794 101.848 89.6382C101.866 89.1889 101.708 88.7505 101.407 88.416C101.248 88.2487 101.055 88.1178 100.841 88.0321C100.627 87.9464 100.397 87.9081 100.167 87.9198C99.9322 87.907 99.698 87.9475 99.4815 88.0382C99.2651 88.1289 99.072 88.2675 98.9168 88.4436C98.6387 88.7791 98.4889 89.2025 98.4941 89.6382C98.4995 90.083 98.666 90.5107 98.9627 90.8421C99.1154 91.0084 99.3016 91.1403 99.5092 91.229C99.7168 91.3178 99.9409 91.3613 100.167 91.3567Z" fill="white"/>
<path d="M117.498 87.01V94.6465H113.464V80.4762H113.142C112.968 80.4762 112.729 80.4762 112.416 80.4762C111.736 80.484 111.06 80.3564 110.429 80.1009C109.798 79.8453 109.224 79.4668 108.74 78.9875C108.233 78.5044 107.833 77.9203 107.565 77.2729C107.298 76.6255 107.169 75.9292 107.187 75.2289C107.162 74.54 107.288 73.854 107.557 73.2189C107.825 72.5839 108.229 72.0153 108.74 71.5531C109.732 70.6144 111.051 70.1 112.416 70.1195C113.089 70.0965 113.759 70.2119 114.386 70.4586C115.012 70.7052 115.581 71.0779 116.058 71.5535C116.534 72.0291 116.908 72.5974 117.156 73.2233C117.403 73.8492 117.52 74.5193 117.498 75.1922V80.3843L118.546 78.5739L124.17 70.4503H125.374C126.667 70.3421 127.959 70.6652 129.049 71.3693C129.803 72.0953 130.18 73.4278 130.18 75.3484V94.6465H126.1V74.8522H125.769L117.498 87.01ZM112.416 73.8137C112.196 73.8035 111.977 73.8419 111.774 73.9261C111.571 74.0102 111.388 74.1382 111.24 74.3008C110.956 74.6194 110.799 75.0316 110.799 75.4587C110.797 75.8999 110.953 76.3272 111.24 76.6625C111.383 76.8338 111.563 76.9695 111.767 77.0589C111.972 77.1482 112.194 77.1887 112.416 77.1771C112.645 77.1924 112.874 77.1566 113.087 77.0723C113.3 76.9881 113.491 76.8575 113.648 76.6901C113.934 76.3449 114.084 75.907 114.07 75.4587C114.078 75.0337 113.927 74.6212 113.648 74.3008C113.49 74.1354 113.298 74.0062 113.085 73.9221C112.873 73.838 112.645 73.801 112.416 73.8137Z" fill="white"/>
<path d="M144.176 82.2498C144.904 82.3726 145.642 82.4341 146.381 82.4336C146.739 82.4336 147.043 82.4336 147.3 82.4336C147.557 82.4336 147.714 82.4336 147.796 82.4336V85.9716H145.536C144.526 85.9367 143.519 86.0926 142.567 86.4311C142.213 86.6276 141.925 86.9243 141.739 87.2839C141.552 87.6435 141.476 88.0501 141.52 88.4528C141.475 88.773 141.504 89.0992 141.604 89.4066C141.704 89.714 141.873 89.9944 142.099 90.2264C142.743 90.5817 143.479 90.7353 144.212 90.6675H150.231C150.755 90.7064 151.278 90.5742 151.72 90.2907C152.037 89.828 152.177 89.2673 152.115 88.7101V70.4504H156.205V89.7485C156.205 91.7059 155.8 93.0568 154.992 93.7919C154.321 94.3617 153.154 94.6374 151.371 94.6374H142.328C141.065 94.7525 139.798 94.4559 138.717 93.7919C137.908 93.0568 137.495 91.7059 137.495 89.7485V88.4528C137.399 87.256 137.76 86.0675 138.506 85.1261C138.965 84.5756 139.535 84.1279 140.178 83.812C139.376 83.3171 138.674 82.6748 138.11 81.919C137.256 80.8989 136.796 79.2264 136.769 76.9015C136.697 75.9977 136.81 75.0888 137.103 74.2307C137.395 73.3725 137.86 72.5833 138.469 71.9115C138.998 71.3592 139.635 70.9204 140.34 70.6218C141.044 70.3233 141.802 70.1711 142.567 70.1747C143.954 70.1432 145.297 70.6581 146.308 71.6083C146.818 72.071 147.22 72.6399 147.487 73.2749C147.754 73.91 147.878 74.5958 147.851 75.2841C147.869 75.9678 147.743 76.6476 147.484 77.2804C147.225 77.9132 146.836 78.4851 146.344 78.9599C145.848 79.4492 145.257 79.832 144.608 80.0848C143.958 80.3377 143.264 80.4552 142.567 80.4303C142.384 80.4416 142.2 80.4416 142.016 80.4303C141.927 80.4203 141.838 80.4203 141.749 80.4303C141.876 80.7735 142.074 81.0866 142.328 81.3492C142.841 81.824 143.479 82.1428 144.166 82.2682M142.558 73.8321C142.332 73.8157 142.106 73.851 141.895 73.9354C141.685 74.0198 141.497 74.1511 141.345 74.3192C141.075 74.6436 140.931 75.0549 140.941 75.4771C140.922 75.9276 141.077 76.3683 141.373 76.7085C141.522 76.8728 141.705 77.0018 141.91 77.0861C142.115 77.1704 142.337 77.2077 142.558 77.1955C142.788 77.2102 143.018 77.1742 143.233 77.09C143.447 77.0059 143.64 76.8756 143.799 76.7085C144.085 76.3633 144.236 75.9254 144.221 75.4771C144.229 75.0521 144.078 74.6396 143.799 74.3192C143.639 74.1535 143.446 74.0243 143.232 73.9402C143.018 73.8562 142.788 73.8193 142.558 73.8321Z" fill="white"/>
<path d="M171.046 86.3392L170.917 89.096C171.083 88.9031 171.487 88.4711 172.112 87.8003C172.934 86.9449 173.806 86.1379 174.722 85.3834C175.45 84.7734 176.224 84.2204 177.037 83.7293C177.472 83.4546 177.938 83.2325 178.425 83.0677V70.4504H182.367V82.553C183.122 82.6508 183.864 82.8263 184.582 83.0769C185.721 83.4767 186.739 84.1598 187.541 85.0618C188.589 86.247 189.139 87.791 189.076 89.3717C189.116 90.144 188.977 90.9151 188.669 91.6246C188.361 92.3341 187.894 92.9627 187.302 93.4611C186.234 94.3988 184.864 94.9207 183.443 94.9314C182.144 94.9749 180.872 94.551 179.859 93.7368C179.367 93.314 178.982 92.7822 178.733 92.1838C178.484 91.5854 178.379 90.9371 178.425 90.2907V87.6165C178.113 87.6165 177.093 88.3976 175.393 89.9507C174.361 90.9302 173.38 91.9607 172.452 93.0384C171.508 94.1105 169.698 94.6465 167.021 94.6465V80.4762H166.69C166.515 80.4762 166.267 80.4762 165.955 80.4762C165.274 80.485 164.598 80.3579 163.967 80.1023C163.336 79.8467 162.762 79.4677 162.279 78.9875C161.773 78.5031 161.374 77.9187 161.107 77.2716C160.84 76.6245 160.71 75.9289 160.726 75.2289C160.703 74.5404 160.831 73.8551 161.099 73.2204C161.367 72.5858 161.77 72.0169 162.279 71.5531C163.27 70.6127 164.589 70.0981 165.955 70.1195C166.628 70.0952 167.3 70.2097 167.927 70.4558C168.555 70.7019 169.125 71.0743 169.602 71.55C170.08 72.0258 170.454 72.5945 170.702 73.2211C170.951 73.8476 171.068 74.5186 171.046 75.1922V86.3392ZM165.955 73.8137C165.735 73.8054 165.516 73.8446 165.313 73.9287C165.11 74.0128 164.928 74.1397 164.779 74.3008C164.499 74.6212 164.349 75.0337 164.356 75.4587C164.348 75.8976 164.498 76.3246 164.779 76.6625C164.922 76.8322 165.103 76.9668 165.307 77.0559C165.511 77.1451 165.733 77.1866 165.955 77.1771C166.185 77.1938 166.416 77.1587 166.63 77.0744C166.845 76.9901 167.038 76.8588 167.195 76.6901C167.488 76.3476 167.645 75.9094 167.637 75.4587C167.637 75.0316 167.48 74.6194 167.195 74.3008C167.037 74.1337 166.844 74.0034 166.629 73.9192C166.415 73.8351 166.185 73.7991 165.955 73.8137ZM182.23 86.6148V89.3717C182.23 90.6399 182.689 91.2648 183.571 91.2648C183.998 91.2595 184.407 91.0958 184.72 90.8053C184.908 90.6194 185.054 90.3951 185.148 90.1477C185.241 89.9003 185.28 89.6356 185.262 89.3717C185.319 88.9345 185.24 88.4902 185.034 88.1002C184.828 87.7101 184.507 87.3934 184.113 87.1938C183.541 86.9023 182.916 86.7273 182.276 86.6792" fill="white"/>
<path d="M196.988 85.6132L197.907 81.6433C198.15 80.3351 198.792 79.1344 199.745 78.2063C200.577 77.4446 201.668 77.0302 202.796 77.0485C203.987 77.0598 205.13 77.5229 205.994 78.3442C206.478 78.7834 206.859 79.3242 207.11 79.9278C207.361 80.5315 207.476 81.1832 207.446 81.8362C207.497 82.4998 207.393 83.1662 207.141 83.7822C206.889 84.3981 206.496 84.9465 205.994 85.3834C205.101 86.1273 203.977 86.5367 202.814 86.5413C202.379 86.5545 201.945 86.4827 201.537 86.3299C201.261 86.2285 200.991 86.112 200.728 85.9807C200.636 86.2381 200.508 86.6883 200.333 87.3316C200.158 87.9749 199.975 88.7652 199.791 89.6566C199.423 91.3032 199.201 92.9792 199.129 94.6649H195.095V93.7459C195.106 92.7837 194.998 91.8237 194.773 90.888C194.544 90.0609 194.176 88.8938 193.661 87.4051C193.197 86.0833 192.808 84.7364 192.494 83.3709C192.22 82.1153 192.084 80.8333 192.09 79.548C192.193 77.7754 192.781 76.0653 193.79 74.604C194.787 73.1944 196.124 72.0596 197.677 71.305C199.258 70.5386 200.993 70.1426 202.75 70.1471C204.703 70.1152 206.631 70.5901 208.346 71.5255C209.92 72.3793 211.227 73.6514 212.123 75.2013C213.027 76.8073 213.487 78.6246 213.456 80.467V94.6465H209.385V80.5313C209.428 78.7609 208.767 77.0458 207.547 75.7619C206.933 75.1163 206.188 74.6088 205.363 74.2729C204.537 73.937 203.65 73.7805 202.759 73.8137C201.472 73.7721 200.199 74.0903 199.083 74.7327C198.046 75.3211 197.203 76.1994 196.657 77.2598C196.088 78.3449 195.798 79.5543 195.812 80.7794C195.782 81.8263 195.931 82.8706 196.253 83.8671C196.434 84.4699 196.671 85.0544 196.961 85.6132M202.787 80.0443C202.556 80.0313 202.325 80.0681 202.109 80.1521C201.893 80.2361 201.698 80.3655 201.537 80.5313C201.257 80.8718 201.104 81.2989 201.104 81.7397C201.104 82.1806 201.257 82.6077 201.537 82.9482C201.693 83.1231 201.886 83.2604 202.102 83.3495C202.319 83.4387 202.553 83.4774 202.787 83.4628C203.016 83.475 203.246 83.4378 203.46 83.3538C203.674 83.2698 203.867 83.1409 204.027 82.9757C204.328 82.6445 204.489 82.21 204.478 81.7627C204.489 81.31 204.328 80.8697 204.027 80.5313C203.867 80.3662 203.674 80.2372 203.46 80.1532C203.246 80.0692 203.016 80.032 202.787 80.0443Z" fill="white"/>
<path d="M229.887 76.929C231.624 76.929 232.837 77.2139 233.508 77.7928C234.178 78.3718 234.711 79.8145 234.711 81.8179V89.822C234.724 90.4917 234.6 91.1569 234.345 91.7765C234.091 92.3961 233.712 92.9569 233.232 93.4243C232.752 93.9076 232.179 94.2875 231.546 94.5404C230.914 94.7933 230.237 94.9139 229.556 94.8947C228.185 94.9092 226.863 94.3807 225.88 93.4243C225.386 92.9658 224.994 92.4077 224.731 91.7868C224.468 91.1658 224.34 90.4962 224.355 89.822C224.332 89.1292 224.457 88.4394 224.719 87.798C224.982 87.1565 225.378 86.578 225.88 86.1002C226.863 85.1439 228.185 84.6153 229.556 84.6299C229.798 84.6136 230.04 84.6136 230.282 84.6299H230.613V82.4887C230.613 81.6433 230.503 81.1195 230.282 80.954C229.839 80.631 229.293 80.4807 228.747 80.5313H218.014V77.3609C218.277 76.5661 218.618 75.7995 219.034 75.0727C219.726 73.8511 220.665 72.787 221.791 71.9482C223.224 70.8731 224.982 70.3217 226.772 70.386C227.973 70.3903 229.166 70.5793 230.31 70.9466C231.181 71.207 232.084 71.3492 232.993 71.3693C233.514 71.383 234.035 71.318 234.537 71.1763C234.814 71.1114 235.083 71.0126 235.336 70.8822L236.678 74.4202C236.403 74.6296 236.091 74.7855 235.759 74.8797C235.077 75.0867 234.366 75.1798 233.655 75.1554C232.411 75.146 231.174 74.9667 229.979 74.6224C229.086 74.3405 228.158 74.1889 227.222 74.1721C226.002 74.0592 224.787 74.4324 223.84 75.2105C223.301 75.6916 222.863 76.2759 222.554 76.929H229.887ZM229.556 91.3567C229.787 91.3672 230.017 91.3264 230.229 91.2375C230.442 91.1485 230.633 91.0134 230.787 90.842C231.064 90.5021 231.214 90.0764 231.21 89.6382C231.222 89.193 231.072 88.7587 230.787 88.416C230.457 88.0894 230.011 87.9062 229.547 87.9062C229.082 87.9062 228.637 88.0894 228.306 88.416C228.018 88.7476 227.858 89.1714 227.856 89.6106C227.859 90.0592 228.034 90.4897 228.343 90.8145C228.497 90.981 228.685 91.113 228.894 91.2017C229.103 91.2904 229.329 91.3338 229.556 91.3291" fill="white"/>
<path d="M226.395 66.3977C224.573 66.3759 222.751 66.4465 220.936 66.6091C219.576 66.7469 218.63 66.8664 218.087 66.9491V64.1555C218.637 62.5199 219.498 61.0064 220.624 59.6985C222.008 57.9035 224.223 57.009 227.268 57.0152C230.53 57.0152 232.837 57.9341 234.16 59.7169C235.266 61.012 236.089 62.5238 236.577 64.1555V67.4637C235.759 67.2891 234.436 67.0778 232.579 66.8205C230.53 66.5424 228.463 66.4104 226.395 66.4253M227.268 60.4888C225.94 60.3909 224.621 60.7688 223.546 61.5548C222.921 62.0463 222.384 62.6397 221.956 63.31C222.195 63.2641 222.673 63.1906 223.408 63.0895C224.488 62.9604 225.574 62.9051 226.661 62.9241C227.973 62.9118 229.284 63.0194 230.576 63.2457C231.725 63.4479 232.524 63.6041 233.021 63.7236C232.607 62.9447 232.027 62.2669 231.32 61.7386C230.161 60.8531 228.724 60.4099 227.268 60.4888Z" fill="white"/>
<path d="M251.519 86.3391L251.39 89.096L252.594 87.8003C253.411 86.9424 254.28 86.1352 255.195 85.3834C255.923 84.7734 256.697 84.2204 257.511 83.7293C257.947 83.4581 258.413 83.2362 258.898 83.0677V70.4503H262.822V82.553C263.58 82.6484 264.326 82.824 265.046 83.0768C266.185 83.4767 267.203 84.1598 268.005 85.0618C269.059 86.2447 269.615 87.7886 269.558 89.3717C269.599 90.1449 269.459 90.917 269.149 91.6267C268.84 92.3365 268.37 92.9645 267.776 93.4611C266.708 94.4002 265.338 94.9224 263.916 94.9314C262.619 94.9768 261.35 94.5526 260.341 93.7368C259.846 93.3163 259.458 92.7852 259.207 92.1864C258.957 91.5876 258.851 90.9381 258.898 90.2907V87.6165C258.586 87.6165 257.566 88.3976 255.875 89.9507C254.846 90.9248 253.872 91.9448 252.925 93.0384C251.979 94.1319 250.168 94.6465 247.494 94.6465V80.4762H247.172C246.998 80.4762 246.75 80.4762 246.437 80.4762C245.756 80.4861 245.08 80.3594 244.449 80.1037C243.817 79.8481 243.244 79.4685 242.761 78.9875C242.256 78.5036 241.857 77.9192 241.591 77.2718C241.325 76.6244 241.198 75.9285 241.218 75.2289C241.191 74.5406 241.315 73.8548 241.582 73.2198C241.849 72.5847 242.251 72.0158 242.761 71.5531C243.751 70.611 245.071 70.0961 246.437 70.1195C247.11 70.0952 247.781 70.2096 248.408 70.4558C249.035 70.702 249.605 71.0746 250.082 71.5505C250.558 72.0263 250.932 72.5952 251.179 73.2217C251.427 73.8483 251.542 74.519 251.519 75.1922V86.3391ZM246.437 73.8137C246.219 73.8023 246 73.8402 245.798 73.9245C245.596 74.0088 245.416 74.1374 245.27 74.3008C244.978 74.6145 244.82 75.03 244.829 75.4587C244.819 75.9012 244.977 76.3312 245.27 76.6625C245.41 76.8342 245.589 76.9703 245.792 77.0598C245.995 77.1492 246.216 77.1894 246.437 77.1771C246.666 77.1911 246.894 77.1547 247.107 77.0705C247.32 76.9864 247.512 76.8565 247.669 76.6901C247.965 76.3499 248.119 75.9093 248.101 75.4587C248.109 75.0319 247.954 74.6179 247.669 74.3008C247.51 74.1359 247.319 74.007 247.106 73.9229C246.894 73.8389 246.665 73.8016 246.437 73.8137ZM262.712 86.6792V89.3717C262.712 90.6399 263.162 91.2648 264.054 91.2648C264.48 91.2595 264.89 91.0958 265.202 90.8053C265.392 90.6209 265.538 90.3965 265.63 90.1486C265.723 89.9006 265.759 89.6352 265.735 89.3717C265.792 88.9356 265.713 88.4926 265.509 88.1029C265.305 87.7133 264.987 87.3958 264.596 87.1938C264.009 86.8963 263.368 86.7213 262.712 86.6792Z" fill="white"/>
<path d="M281.202 87.01V94.6466H277.186V80.4762H276.855C276.68 80.4762 276.441 80.4762 276.12 80.4762C275.439 80.4861 274.762 80.3595 274.131 80.1038C273.5 79.8481 272.926 79.4685 272.444 78.9875C271.938 78.5031 271.539 77.9187 271.272 77.2716C271.004 76.6246 270.875 75.9289 270.891 75.2289C270.868 74.5404 270.995 73.8551 271.264 73.2204C271.532 72.5858 271.934 72.0169 272.444 71.5531C273.433 70.611 274.754 70.0961 276.12 70.1195C276.798 70.0939 277.474 70.2079 278.106 70.4545C278.739 70.7011 279.314 71.0751 279.796 71.5531C280.276 72.0329 280.652 72.6075 280.899 73.2403C281.146 73.8731 281.258 74.5503 281.229 75.2289V80.4211L282.313 78.5188L287.937 70.3952H289.141C290.435 70.2841 291.728 70.6075 292.817 71.3142C293.571 72.0402 293.947 73.3726 293.947 75.2933V94.5914H289.867V74.8522H289.536L281.202 87.01ZM276.12 73.8137C275.901 73.8055 275.684 73.8448 275.483 73.9289C275.281 74.013 275.1 74.1399 274.953 74.3008C274.664 74.617 274.507 75.0308 274.511 75.4587C274.509 75.8999 274.666 76.3272 274.953 76.6625C275.095 76.832 275.274 76.9666 275.476 77.0558C275.679 77.145 275.899 77.1866 276.12 77.1771C276.348 77.193 276.578 77.1575 276.791 77.0733C277.004 76.989 277.195 76.8581 277.351 76.6901C277.652 76.3517 277.813 75.9115 277.801 75.4587C277.803 75.0297 277.642 74.6161 277.351 74.3008C277.194 74.1344 277.002 74.0045 276.79 73.9203C276.577 73.8362 276.348 73.7998 276.12 73.8137Z" fill="white"/>
<path d="M310.351 76.929C312.097 76.929 313.31 77.2139 313.972 77.7928C314.793 78.4729 315.203 79.8146 315.203 81.8179V89.822C315.218 90.4911 315.095 91.1561 314.842 91.7758C314.589 92.3954 314.211 92.9565 313.733 93.4243C313.252 93.9059 312.678 94.2846 312.046 94.5374C311.414 94.7901 310.737 94.9117 310.057 94.8947C309.377 94.9049 308.703 94.7802 308.072 94.5278C307.441 94.2755 306.866 93.9004 306.381 93.4243C305.882 92.9682 305.487 92.411 305.22 91.7898C304.954 91.1686 304.824 90.4977 304.837 89.822C304.816 89.1277 304.943 88.4367 305.209 87.795C305.475 87.1533 305.874 86.5756 306.381 86.1002C306.866 85.6242 307.441 85.2491 308.072 84.9967C308.703 84.7443 309.377 84.6197 310.057 84.6299C310.302 84.613 310.547 84.613 310.792 84.6299H311.114V82.4887C311.114 81.6433 311.013 81.1195 310.792 80.9541C310.349 80.631 309.803 80.4807 309.257 80.5313H298.487V77.3609C298.762 76.5709 299.104 75.8055 299.507 75.0727C300.197 73.8497 301.136 72.7852 302.264 71.9483C303.682 70.871 305.429 70.3189 307.208 70.386C308.415 70.3903 309.615 70.5793 310.764 70.9466C311.636 71.209 312.538 71.3513 313.448 71.3693C313.966 71.3824 314.484 71.3173 314.983 71.1763C315.263 71.1127 315.535 71.0139 315.791 70.8823L317.124 74.4203C316.847 74.6268 316.536 74.7824 316.205 74.8797C315.52 75.0865 314.806 75.1797 314.091 75.1554C312.847 75.1444 311.611 74.9651 310.415 74.6224C309.523 74.3381 308.594 74.1864 307.658 74.1721C306.433 74.0583 305.211 74.4313 304.258 75.2106C303.723 75.7 303.281 76.2822 302.953 76.929H310.351ZM310.029 91.3567C310.26 91.3678 310.49 91.3274 310.703 91.2384C310.916 91.1494 311.107 91.014 311.261 90.8421C311.54 90.503 311.693 90.0775 311.693 89.6382C311.702 89.1919 311.548 88.7574 311.261 88.416C310.93 88.0894 310.485 87.9062 310.02 87.9062C309.556 87.9062 309.11 88.0894 308.78 88.416C308.495 88.7489 308.338 89.1726 308.338 89.6107C308.346 90.0566 308.516 90.4845 308.816 90.8145C308.971 90.9811 309.159 91.113 309.368 91.2017C309.577 91.2904 309.802 91.3339 310.029 91.3291" fill="white"/>
<path d="M311.527 58.026C312.122 58.0166 312.712 58.1301 313.261 58.3594C313.809 58.5887 314.305 58.9288 314.716 59.3585C315.142 59.7769 315.477 60.2782 315.702 60.8314C315.926 61.3846 316.035 61.978 316.021 62.5749C316.061 63.2399 315.956 63.9057 315.713 64.5262C315.471 65.1466 315.096 65.7068 314.615 66.168C313.791 66.9816 312.685 67.4457 311.527 67.4637C310.735 67.4985 309.945 67.3509 309.218 67.0322C308.492 66.7136 307.848 66.2324 307.337 65.6258C306.294 64.3277 305.758 62.6947 305.83 61.031C305.811 59.2649 306.405 57.5469 307.511 56.1697C308.74 54.7153 310.442 53.7394 312.318 53.4128C313.59 53.2718 314.806 52.8137 315.856 52.0803C316.312 51.7384 316.677 51.2905 316.921 50.7754L320 52.2917C319.712 53.1032 319.247 53.8408 318.64 54.4513C317.525 55.4784 316.091 56.0916 314.578 56.1881C311.49 56.6751 309.983 57.4195 309.983 58.3752L310.526 58.2006C310.849 58.0921 311.186 58.0333 311.527 58.026ZM309.515 62.5749C309.503 62.8042 309.538 63.0335 309.619 63.2485C309.7 63.4635 309.824 63.6597 309.983 63.8246C310.317 64.1268 310.755 64.2881 311.206 64.2749C311.635 64.2781 312.049 64.117 312.363 63.8246C312.532 63.6646 312.665 63.4702 312.752 63.2546C312.839 63.039 312.879 62.8072 312.869 62.5749C312.882 62.3448 312.844 62.1147 312.757 61.9015C312.669 61.6883 312.535 61.4976 312.363 61.3435C312.044 61.0627 311.631 60.9118 311.206 60.9207C310.759 60.9019 310.323 61.0529 309.983 61.3435C309.821 61.5026 309.695 61.6951 309.614 61.9077C309.533 62.1203 309.499 62.3479 309.515 62.5749Z" fill="white"/>
<path d="M111.534 62.244H111.948C112.197 62.2365 112.446 62.2799 112.679 62.3718C112.911 62.4637 113.123 62.602 113.3 62.7784C113.477 62.9547 113.616 63.1653 113.709 63.3974C113.802 63.6294 113.847 63.878 113.841 64.1279C113.843 64.4523 113.754 64.7708 113.583 65.0469C113.411 65.3202 113.174 65.5474 112.894 65.7085C112.614 65.8681 112.298 65.9536 111.975 65.9566C111.727 65.9593 111.482 65.9118 111.253 65.8171C111.024 65.7223 110.816 65.5823 110.643 65.4053C110.47 65.2383 110.334 65.0383 110.24 64.8173C110.147 64.5962 110.1 64.3586 110.101 64.1187V54.6626C110.166 54.0334 110.014 53.4007 109.669 52.8707C109.342 52.5882 108.939 52.409 108.511 52.356C108.15 52.2861 107.784 52.2462 107.417 52.2366V50.7754C107.664 50.3917 107.975 50.053 108.336 49.7738C108.889 49.3469 109.577 49.1318 110.275 49.1673C110.81 49.1728 111.339 49.2755 111.837 49.4705C112.206 49.6089 112.593 49.6895 112.986 49.7094C113.135 49.7162 113.284 49.6976 113.427 49.6543L113.593 49.5716L113.951 50.9041C113.841 50.9693 113.724 51.0218 113.602 51.0603C113.378 51.1419 113.141 51.1794 112.903 51.1706C112.447 51.1622 111.995 51.072 111.571 50.9041C111.159 50.7521 110.724 50.6714 110.284 50.6652C109.968 50.6486 109.653 50.7085 109.365 50.8398C109.204 50.9136 109.058 51.0164 108.933 51.143C109.3 51.1763 109.661 51.2534 110.009 51.3728C110.449 51.496 110.834 51.7649 111.102 52.1355C111.455 52.6496 111.624 53.2684 111.58 53.8907L111.534 62.244ZM111.948 64.6609C112.032 64.6649 112.117 64.6496 112.195 64.6162C112.273 64.5828 112.342 64.5321 112.398 64.4679C112.499 64.35 112.554 64.2002 112.554 64.0452C112.557 63.8813 112.502 63.7217 112.398 63.5949C112.34 63.5351 112.27 63.4886 112.192 63.4584C112.114 63.4283 112.031 63.4153 111.948 63.4203C111.864 63.4165 111.78 63.4309 111.702 63.4626C111.624 63.4944 111.555 63.5426 111.497 63.6041C111.396 63.7288 111.341 63.8846 111.341 64.0452C111.34 64.202 111.4 64.3532 111.507 64.4679C111.562 64.5299 111.63 64.5791 111.706 64.6124C111.782 64.6457 111.865 64.6623 111.948 64.6609Z" fill="white"/>
<path d="M118.84 59.4412C119.3 59.3953 119.763 59.5053 120.154 59.7536C120.318 59.955 120.44 60.1873 120.513 60.4367C120.585 60.6861 120.607 60.9476 120.577 61.2056V64.1095C120.583 64.352 120.539 64.5932 120.447 64.8178C120.355 65.0424 120.218 65.2456 120.044 65.4144C119.869 65.5881 119.66 65.7248 119.432 65.8164C119.203 65.9079 118.958 65.9525 118.711 65.9474C118.214 65.9506 117.736 65.7593 117.379 65.4144C117.197 65.2498 117.053 65.0481 116.956 64.823C116.86 64.5978 116.813 64.3545 116.818 64.1095C116.811 63.8575 116.857 63.6068 116.953 63.3739C117.05 63.1411 117.195 62.9314 117.379 62.7586C117.554 62.585 117.762 62.4483 117.991 62.3567C118.22 62.2651 118.465 62.2206 118.711 62.2256H119.097V61.4353C119.097 61.1229 119.097 60.9391 118.978 60.8748C118.816 60.7647 118.621 60.7129 118.426 60.7277H114.539V59.5882C114.638 59.3027 114.761 59.0261 114.907 58.7612C115.158 58.3214 115.496 57.9369 115.899 57.6309C116.415 57.2449 117.047 57.0471 117.691 57.0703C118.128 57.0738 118.561 57.1419 118.978 57.2725C119.294 57.3694 119.621 57.422 119.952 57.4287C120.138 57.4304 120.323 57.4088 120.503 57.3644C120.604 57.3351 120.702 57.2982 120.797 57.2541L121.284 58.5314C121.182 58.6104 121.062 58.6639 120.935 58.6877C120.689 58.7698 120.431 58.8072 120.172 58.7979C119.722 58.7917 119.274 58.7268 118.84 58.6049C118.515 58.5052 118.178 58.4496 117.838 58.4395C117.619 58.4203 117.398 58.4446 117.189 58.5108C116.979 58.577 116.784 58.684 116.616 58.8255C116.418 58.9951 116.258 59.205 116.147 59.4412H118.84ZM118.711 64.6609C118.796 64.6649 118.881 64.6496 118.959 64.6162C119.037 64.5828 119.106 64.5321 119.161 64.4679C119.266 64.3523 119.322 64.2009 119.318 64.0452C119.325 63.8806 119.269 63.7195 119.161 63.5949C119.103 63.5351 119.033 63.4885 118.955 63.4584C118.878 63.4283 118.794 63.4153 118.711 63.4203C118.627 63.4164 118.544 63.4309 118.466 63.4626C118.388 63.4943 118.318 63.5426 118.261 63.6041C118.16 63.7288 118.104 63.8846 118.105 64.0452C118.107 64.2031 118.17 64.3541 118.279 64.4679C118.332 64.5306 118.398 64.5806 118.473 64.614C118.548 64.6474 118.629 64.6634 118.711 64.6609Z" fill="white"/>
<path d="M126.256 60.7461C126.008 60.7525 125.761 60.7085 125.53 60.6169C125.3 60.5253 125.09 60.3879 124.914 60.2131C124.733 60.0354 124.59 59.822 124.495 59.5863C124.4 59.3506 124.355 59.0978 124.363 58.8439C124.355 58.5972 124.401 58.3517 124.497 58.1247C124.594 57.8977 124.74 57.6946 124.923 57.5298C125.1 57.3594 125.309 57.2261 125.538 57.1377C125.766 57.0493 126.011 57.0077 126.256 57.0152C126.5 57.0036 126.743 57.0444 126.97 57.1347C127.196 57.2251 127.401 57.3629 127.57 57.539C127.742 57.7086 127.878 57.9121 127.968 58.1367C128.058 58.3612 128.101 58.602 128.094 58.8439V64.2382C128.152 64.712 128.023 65.1899 127.735 65.5707C127.399 65.7923 126.997 65.8928 126.596 65.8555H126.054L122.378 61.6559L123.499 60.691L126.66 64.2841V60.7186H126.559H126.283M126.283 58.2833C126.204 58.2804 126.124 58.2954 126.051 58.3272C125.978 58.359 125.913 58.4068 125.861 58.4671C125.758 58.5804 125.703 58.7281 125.704 58.8806C125.702 59.0388 125.758 59.1923 125.861 59.3126C125.912 59.3745 125.976 59.4235 126.05 59.4555C126.123 59.4874 126.203 59.5014 126.283 59.4964C126.367 59.5033 126.451 59.4912 126.529 59.461C126.607 59.4307 126.677 59.3831 126.734 59.3217C126.832 59.1962 126.884 59.0403 126.881 58.8806C126.881 58.73 126.829 58.5838 126.734 58.4671C126.678 58.4041 126.608 58.3548 126.53 58.3229C126.452 58.291 126.367 58.2775 126.283 58.2833Z" fill="white"/>
<path d="M138.653 63.1722L138.57 61.8489V57.0979H140.031V65.8555H138.34L136.3 60.7461L136.034 59.8272L135.813 60.7461L133.773 65.8555H132.045V60.7186H131.926H131.669C131.42 60.7237 131.173 60.6783 130.942 60.5851C130.711 60.4919 130.502 60.3528 130.327 60.1764C130.143 60.0013 129.998 59.7901 129.9 59.556C129.802 59.3219 129.753 59.0701 129.757 58.8163C129.753 58.5693 129.801 58.3241 129.899 58.0974C129.998 57.8707 130.143 57.6678 130.327 57.5022C130.504 57.3307 130.715 57.1967 130.945 57.1083C131.176 57.0199 131.422 56.9788 131.669 56.9876C131.911 56.9778 132.153 57.0184 132.38 57.107C132.606 57.1956 132.811 57.3302 132.983 57.5022C133.158 57.6719 133.295 57.8767 133.385 58.1032C133.475 58.3297 133.517 58.5727 133.506 58.8163V61.8213L133.405 63.1446L133.819 61.8213L135.739 57.0703H136.364L138.202 61.8213L138.653 63.1722ZM131.669 58.3109C131.587 58.3072 131.506 58.3218 131.432 58.3536C131.357 58.3854 131.29 58.4336 131.237 58.4947C131.134 58.608 131.079 58.7556 131.08 58.9082C131.078 59.0664 131.134 59.2198 131.237 59.3401C131.289 59.4028 131.355 59.4522 131.43 59.4841C131.505 59.5161 131.587 59.5297 131.669 59.5239C131.749 59.5301 131.83 59.5176 131.905 59.4873C131.98 59.457 132.047 59.4098 132.1 59.3493C132.157 59.2915 132.202 59.2223 132.23 59.1463C132.259 59.0704 132.271 58.9892 132.266 58.9082C132.269 58.8315 132.256 58.755 132.228 58.6837C132.199 58.6124 132.156 58.548 132.1 58.4947C132.047 58.4331 131.981 58.3845 131.906 58.3527C131.831 58.3208 131.75 58.3065 131.669 58.3109Z" fill="white"/>
<path d="M145.076 61.3618C145.34 61.4099 145.607 61.4345 145.876 61.4354H146.216H146.399V62.7219H145.554C145.191 62.7086 144.83 62.7648 144.488 62.8873C144.24 62.9884 144.102 63.2457 144.102 63.6501C144.087 63.767 144.098 63.886 144.137 63.9976C144.175 64.1092 144.239 64.2105 144.323 64.2933C144.555 64.4113 144.816 64.4622 145.076 64.4404H147.263C147.45 64.4527 147.636 64.4078 147.796 64.3117C147.914 64.1466 147.967 63.9435 147.943 63.7419V57.0979H149.432V64.082C149.46 64.3433 149.435 64.6078 149.358 64.859C149.28 65.1103 149.152 65.3431 148.982 65.5431C148.593 65.7881 148.134 65.898 147.677 65.8556H144.396C143.939 65.8939 143.481 65.7844 143.091 65.5431C142.924 65.3416 142.799 65.1082 142.725 64.857C142.651 64.6058 142.628 64.3421 142.659 64.082V63.6409C142.625 63.209 142.753 62.78 143.018 62.437C143.184 62.2366 143.39 62.0737 143.624 61.9592C143.33 61.7858 143.073 61.5544 142.871 61.2791C142.502 60.7407 142.33 60.0916 142.384 59.4412C142.363 59.1152 142.409 58.7885 142.518 58.4805C142.627 58.1726 142.797 57.8899 143.018 57.6492C143.211 57.4542 143.442 57.2993 143.696 57.1937C143.95 57.088 144.222 57.0336 144.497 57.0335C145 57.0202 145.489 57.205 145.857 57.5482C146.038 57.7146 146.181 57.9182 146.276 58.145C146.372 58.3718 146.417 58.6165 146.409 58.8623C146.415 59.1125 146.37 59.3614 146.277 59.5937C146.184 59.826 146.044 60.0368 145.866 60.2131C145.686 60.3897 145.472 60.5274 145.236 60.6175C145.001 60.7076 144.749 60.7483 144.497 60.7369H144.203C144.25 60.8579 144.322 60.9675 144.414 61.0586C144.593 61.2395 144.825 61.3586 145.076 61.3986M144.497 58.3477C144.416 58.3418 144.334 58.3555 144.259 58.3874C144.184 58.4194 144.118 58.4688 144.065 58.5314C144.013 58.5865 143.972 58.6514 143.945 58.7224C143.919 58.7935 143.906 58.8691 143.909 58.945C143.905 59.0252 143.916 59.1055 143.943 59.1812C143.97 59.2569 144.011 59.3266 144.065 59.3861C144.121 59.4444 144.188 59.4902 144.262 59.5204C144.337 59.5505 144.417 59.5642 144.497 59.5607C144.582 59.5658 144.666 59.5529 144.746 59.5228C144.825 59.4927 144.897 59.4461 144.957 59.3861C145.055 59.2605 145.107 59.1046 145.104 58.945C145.104 58.7943 145.052 58.6482 144.957 58.5314C144.898 58.4698 144.826 58.4214 144.747 58.3897C144.668 58.358 144.582 58.3437 144.497 58.3477Z" fill="white"/>
<path d="M155.065 65.8556V59.9007C155.077 59.7068 155.05 59.5124 154.986 59.3293C154.921 59.1461 154.82 58.9779 154.688 58.8347C154.569 58.7116 154.426 58.6134 154.268 58.5456C154.111 58.4778 153.941 58.4417 153.769 58.4396C153.376 58.437 152.996 58.5812 152.703 58.8439C152.5 59.0283 152.329 59.2458 152.198 59.4872L151.059 58.6877C151.292 58.2778 151.604 57.9186 151.977 57.6309C152.519 57.1882 153.209 56.9681 153.907 57.0152C154.603 56.9913 155.279 57.2422 155.791 57.7136C156.061 57.9866 156.269 58.3138 156.402 58.6735C156.535 59.0331 156.59 59.417 156.563 59.7996V65.8556H155.065Z" fill="white"/>
<path d="M160.607 64.4128V60.7369C160.564 60.7308 160.521 60.7308 160.478 60.7369H160.175C159.927 60.7408 159.682 60.6948 159.453 60.6016C159.224 60.5085 159.016 60.3701 158.842 60.1948C158.663 60.0173 158.523 59.805 158.43 59.571C158.336 59.3371 158.292 59.0864 158.3 58.8347C158.301 58.5107 158.39 58.193 158.557 57.9157C158.718 57.6366 158.954 57.4076 159.237 57.2541C159.517 57.0953 159.834 57.0129 160.156 57.0152C160.402 57.0056 160.648 57.0473 160.877 57.1374C161.107 57.2276 161.315 57.3643 161.489 57.539C161.667 57.7059 161.808 57.9082 161.903 58.133C161.998 58.3578 162.044 58.5999 162.04 58.8439V64.4128H164.328C164.515 64.4251 164.701 64.3802 164.861 64.2841C164.926 64.205 164.973 64.1138 165.002 64.016C165.03 63.9181 165.039 63.8156 165.027 63.7144V57.0979H166.497V64.082C166.553 64.6027 166.408 65.1252 166.093 65.5431C165.691 65.7819 165.226 65.891 164.76 65.8555H159.136V64.4128H160.607ZM160.175 58.3109C160.092 58.3043 160.009 58.3176 159.932 58.3496C159.855 58.3815 159.787 58.4313 159.734 58.4947C159.634 58.6089 159.581 58.7567 159.586 58.9082C159.581 59.0696 159.637 59.2271 159.743 59.3493C159.798 59.4082 159.865 59.4543 159.939 59.4845C160.014 59.5146 160.094 59.5281 160.175 59.5239C160.254 59.5274 160.332 59.5135 160.405 59.4834C160.478 59.4532 160.544 59.4075 160.597 59.3493C160.695 59.2283 160.748 59.0775 160.748 58.922C160.748 58.7665 160.695 58.6157 160.597 58.4947C160.544 58.4331 160.478 58.3845 160.403 58.3527C160.328 58.3208 160.247 58.3065 160.165 58.3109" fill="white"/>
<path d="M172.176 65.8556V59.9007C172.187 59.7062 172.159 59.5114 172.092 59.3282C172.026 59.145 171.923 58.9771 171.79 58.8347C171.547 58.5878 171.218 58.446 170.871 58.4396C170.481 58.4367 170.103 58.581 169.814 58.8439C169.611 59.0283 169.44 59.2458 169.309 59.4872L168.151 58.6877C168.395 58.2855 168.706 57.9281 169.07 57.6309C169.616 57.1954 170.303 56.9762 171 57.0152C171.363 56.9953 171.726 57.0538 172.065 57.1866C172.403 57.3194 172.709 57.5234 172.962 57.7849C173.215 58.0464 173.408 58.3592 173.53 58.702C173.651 59.0449 173.697 59.4098 173.665 59.7721V65.828L172.176 65.8556Z" fill="white"/>
<path d="M175.521 59.2023C175.804 58.6734 176.188 58.2051 176.652 57.8239C177.392 57.235 178.327 56.9464 179.271 57.0152C179.881 57.0022 180.487 57.1246 181.044 57.3736C181.558 57.6006 181.995 57.9707 182.303 58.4396C182.625 58.9504 182.788 59.5452 182.772 60.1488V65.8556H181.301V63.3376C181.26 63.0433 181.143 62.7647 180.961 62.5289C180.712 62.1705 180.401 61.8593 180.043 61.61C179.673 61.3361 179.225 61.1879 178.765 61.1873C178.634 61.1864 178.503 61.212 178.382 61.2625C178.26 61.313 178.15 61.3874 178.058 61.4813C177.968 61.5667 177.897 61.6694 177.848 61.7831C177.799 61.8968 177.773 62.0192 177.773 62.143V62.3359C177.825 62.3427 177.877 62.3427 177.929 62.3359C178.033 62.3233 178.138 62.3233 178.241 62.3359C178.485 62.3269 178.728 62.3683 178.955 62.4575C179.182 62.5467 179.389 62.6817 179.561 62.8542C179.734 63.0267 179.869 63.2329 179.958 63.46C180.047 63.6871 180.088 63.9301 180.079 64.1739C180.088 64.4181 180.046 64.6616 179.954 64.8881C179.862 65.1147 179.723 65.3191 179.546 65.488C179.2 65.8264 178.735 66.0146 178.251 66.0118C178.001 66.0194 177.753 65.976 177.52 65.8844C177.288 65.7927 177.077 65.6547 176.9 65.4788C176.727 65.3095 176.591 65.106 176.501 64.8814C176.41 64.6567 176.368 64.4158 176.376 64.1739V62.097C176.375 61.7006 176.47 61.3099 176.652 60.9575C176.834 60.5783 177.121 60.2594 177.479 60.0386C177.867 59.7978 178.318 59.6764 178.774 59.6893C179.399 59.6638 180.012 59.8554 180.511 60.2315C180.864 60.487 181.175 60.7972 181.43 61.1505V60.3969C181.455 60.1064 181.4 59.8147 181.272 59.5526C181.144 59.2905 180.948 59.0679 180.704 58.9082C180.295 58.6265 179.813 58.4671 179.317 58.4488C178.697 58.403 178.082 58.5861 177.589 58.9634C177.304 59.1952 177.069 59.4829 176.9 59.8088L175.521 59.2023ZM178.278 64.6609C178.361 64.6642 178.444 64.6485 178.521 64.6151C178.597 64.5817 178.665 64.5314 178.719 64.4679C178.813 64.347 178.865 64.1984 178.866 64.0452C178.868 63.883 178.817 63.7247 178.719 63.5949C178.663 63.5358 178.594 63.4897 178.518 63.4595C178.442 63.4294 178.36 63.416 178.278 63.4203C178.196 63.4184 178.114 63.4337 178.038 63.4654C177.962 63.4971 177.894 63.5443 177.837 63.6041C177.723 63.7225 177.66 63.8809 177.662 64.0452C177.661 64.1238 177.676 64.2019 177.706 64.2745C177.736 64.3472 177.781 64.413 177.837 64.4679C177.892 64.5308 177.959 64.5808 178.036 64.6142C178.112 64.6476 178.195 64.6635 178.278 64.6609Z" fill="white"/>
</g>
<defs>
<clipPath id="clip0_249_4106">
<rect width="320" height="64.125" fill="white" transform="translate(0 48.9375)"/>
</clipPath>
</defs>
</svg>
